<svg width="1080" height="101" viewBox="0 0 1080 101" fill="none" xmlns="http://www.w3.org/2000/svg">
<path d="M2.35952 39V35.6765L17.4662 14.0093H2.27319V9.53482H24.0843V12.8583L8.99206 34.5256H24.1707V39H2.35952ZM36.9847 39.4316C34.769 39.4316 32.8555 38.9712 31.2441 38.0504C29.6424 37.1201 28.4098 35.806 27.5466 34.1083C26.6834 32.401 26.2517 30.3916 26.2517 28.08C26.2517 25.8069 26.6834 23.8118 27.5466 22.0949C28.4194 20.3685 29.6376 19.0256 31.201 18.0665C32.7644 17.0977 34.6012 16.6134 36.7113 16.6134C38.0733 16.6134 39.3586 16.834 40.5671 17.2752C41.7852 17.7068 42.8595 18.3782 43.7899 19.2894C44.7298 20.2006 45.4684 21.3612 46.0055 22.7711C46.5426 24.1715 46.8112 25.8404 46.8112 27.7779V29.3749H28.6976V25.8644H41.8188C41.8092 24.8669 41.5934 23.9797 41.1714 23.2028C40.7493 22.4162 40.1595 21.7976 39.4017 21.3468C38.6536 20.896 37.7808 20.6706 36.7832 20.6706C35.7186 20.6706 34.7834 20.9296 33.9777 21.4475C33.172 21.9559 32.5438 22.6273 32.093 23.4617C31.6518 24.2866 31.4264 25.193 31.4168 26.1809V29.2454C31.4168 30.5307 31.6518 31.6337 32.1218 32.5545C32.5917 33.4657 33.2488 34.1659 34.0928 34.655C34.9369 35.1346 35.9248 35.3744 37.0566 35.3744C37.8143 35.3744 38.5001 35.2689 39.114 35.0579C39.7278 34.8373 40.2602 34.516 40.711 34.0939C41.1618 33.6719 41.5023 33.1492 41.7325 32.5257L46.5954 33.0724C46.2885 34.3577 45.7034 35.4799 44.8401 36.4391C43.9865 37.3886 42.8931 38.1272 41.5598 38.6547C40.2266 39.1726 38.7016 39.4316 36.9847 39.4316ZM49.3131 47.2871V16.9011H54.435V20.5555H54.7371C55.0057 20.0184 55.3846 19.4477 55.8737 18.8434C56.3629 18.2295 57.0247 17.7068 57.8592 17.2752C58.6936 16.834 59.7583 16.6134 61.0531 16.6134C62.7604 16.6134 64.2999 17.0498 65.6715 17.9226C67.0526 18.7859 68.1461 20.0663 68.9518 21.764C69.7671 23.4521 70.1747 25.5239 70.1747 27.9793C70.1747 30.406 69.7766 32.4682 68.9805 34.1659C68.1844 35.8636 67.1006 37.1584 65.729 38.0504C64.3574 38.9425 62.8036 39.3885 61.0675 39.3885C59.8015 39.3885 58.7512 39.1774 57.9167 38.7554C57.0823 38.3334 56.4108 37.825 55.9025 37.2304C55.4037 36.6261 55.0153 36.0554 54.7371 35.5183H54.5213V47.2871H49.3131ZM54.4206 27.9506C54.4206 29.3797 54.622 30.6314 55.0249 31.7056C55.4373 32.7799 56.0272 33.6192 56.7945 34.2234C57.5714 34.8181 58.5114 35.1154 59.6144 35.1154C60.7654 35.1154 61.7293 34.8085 62.5063 34.1946C63.2832 33.5712 63.8683 32.7223 64.2615 31.6481C64.6644 30.5642 64.8658 29.3317 64.8658 27.9506C64.8658 26.579 64.6692 25.3608 64.2759 24.2962C63.8826 23.2315 63.2976 22.3971 62.5207 21.7928C61.7437 21.1885 60.775 20.8864 59.6144 20.8864C58.5018 20.8864 57.557 21.1789 56.7801 21.764C56.0032 22.3491 55.4133 23.1692 55.0105 24.2242C54.6172 25.2793 54.4206 26.5214 54.4206 27.9506ZM77.9388 26.0514V39H72.7306V9.53482H77.8237V20.6562H78.0826C78.6006 19.4093 79.4015 18.4262 80.4853 17.7068C81.5788 16.9778 82.9695 16.6134 84.6576 16.6134C86.1923 16.6134 87.5303 16.9347 88.6717 17.5773C89.8131 18.2199 90.6955 19.1599 91.319 20.3972C91.952 21.6345 92.2685 23.1452 92.2685 24.9292V39H87.0603V25.7349C87.0603 24.2482 86.6766 23.0924 85.9093 22.2676C85.1516 21.4331 84.0869 21.0159 82.7153 21.0159C81.7946 21.0159 80.9697 21.2173 80.2407 21.6201C79.5214 22.0134 78.9555 22.5841 78.543 23.3322C78.1402 24.0804 77.9388 24.9868 77.9388 26.0514ZM98.1191 47.2871C97.4093 47.2871 96.7523 47.2295 96.148 47.1144C95.5533 47.0089 95.0786 46.8842 94.7237 46.7404L95.9322 42.6831C96.6899 42.9038 97.3661 43.0093 97.9608 42.9997C98.5555 42.9901 99.0782 42.803 99.529 42.4386C99.9894 42.0837 100.378 41.489 100.694 40.6545L101.14 39.4604L93.1267 16.9011H98.6514L103.745 33.5904H103.975L109.082 16.9011H114.621L105.773 41.676C105.361 42.8462 104.814 43.8485 104.133 44.683C103.452 45.527 102.618 46.1697 101.63 46.6109C100.651 47.0617 99.4811 47.2871 98.1191 47.2871ZM116.321 39V16.9011H121.371V20.5843H121.601C122.004 19.3086 122.695 18.3255 123.673 17.6349C124.661 16.9347 125.788 16.5846 127.054 16.5846C127.342 16.5846 127.663 16.599 128.018 16.6278C128.382 16.6469 128.685 16.6805 128.924 16.7285V21.5194C128.704 21.4427 128.354 21.3756 127.874 21.318C127.404 21.2509 126.949 21.2173 126.507 21.2173C125.558 21.2173 124.704 21.4235 123.946 21.836C123.198 22.2388 122.608 22.7999 122.177 23.5193C121.745 24.2386 121.529 25.0683 121.529 26.0083V39H116.321ZM138.856 39V9.53482H144.194V23.0733H144.553L156.049 9.53482H162.566L151.171 22.7567L162.667 39H156.25L147.459 26.368L144.194 30.2237V39H138.856ZM182.257 16.9011L174.387 39H168.633L160.763 16.9011H166.316L171.395 33.317H171.625L176.718 16.9011H182.257ZM189.683 39.446C188.283 39.446 187.022 39.1966 185.899 38.6979C184.787 38.1895 183.904 37.4414 183.252 36.4534C182.61 35.4655 182.288 34.2474 182.288 32.7991C182.288 31.5522 182.518 30.5211 182.979 29.7058C183.439 28.8905 184.067 28.2383 184.864 27.7491C185.66 27.26 186.556 26.8907 187.554 26.6413C188.561 26.3823 189.602 26.1953 190.676 26.0802C191.971 25.9459 193.021 25.826 193.827 25.7205C194.633 25.6054 195.218 25.4328 195.582 25.2026C195.956 24.9628 196.143 24.5935 196.143 24.0948V24.0084C196.143 22.9246 195.822 22.0853 195.179 21.4907C194.537 20.896 193.611 20.5987 192.402 20.5987C191.127 20.5987 190.115 20.8768 189.367 21.4331C188.628 21.9894 188.129 22.6464 187.87 23.4042L183.008 22.7136C183.391 21.3708 184.024 20.2486 184.907 19.347C185.789 18.4358 186.868 17.7548 188.144 17.304C189.42 16.8436 190.829 16.6134 192.374 16.6134C193.438 16.6134 194.498 16.7381 195.553 16.9874C196.608 17.2368 197.572 17.6493 198.445 18.2247C199.318 18.7906 200.018 19.5628 200.546 20.5411C201.083 21.5194 201.351 22.7424 201.351 24.2099V39H196.345V35.9643H196.172C195.855 36.5781 195.409 37.1536 194.834 37.6908C194.268 38.2183 193.553 38.6451 192.69 38.9712C191.837 39.2877 190.834 39.446 189.683 39.446ZM191.036 35.619C192.081 35.619 192.988 35.4128 193.755 35.0003C194.522 34.5783 195.112 34.022 195.525 33.3314C195.947 32.6408 196.158 31.8879 196.158 31.0726V28.4685C195.995 28.6028 195.716 28.7275 195.323 28.8426C194.939 28.9577 194.508 29.0584 194.028 29.1447C193.549 29.231 193.074 29.3078 192.604 29.3749C192.134 29.442 191.726 29.4996 191.381 29.5475C190.604 29.6531 189.909 29.8257 189.295 30.0655C188.681 30.3053 188.197 30.641 187.842 31.0726C187.487 31.4946 187.309 32.0413 187.309 32.7128C187.309 33.6719 187.659 34.3961 188.36 34.8852C189.06 35.3744 189.952 35.619 191.036 35.619ZM209.892 26.0514V39H204.684V16.9011H209.662V20.6562H209.921C210.429 19.4189 211.24 18.4358 212.353 17.7068C213.475 16.9778 214.861 16.6134 216.511 16.6134C218.036 16.6134 219.364 16.9395 220.496 17.5917C221.637 18.2439 222.52 19.1887 223.143 20.426C223.776 21.6633 224.088 23.1644 224.078 24.9292V39H218.87V25.7349C218.87 24.2578 218.486 23.102 217.719 22.2676C216.961 21.4331 215.911 21.0159 214.568 21.0159C213.657 21.0159 212.847 21.2173 212.137 21.6201C211.437 22.0134 210.885 22.5841 210.482 23.3322C210.089 24.0804 209.892 24.9868 209.892 26.0514ZM238.504 16.9011V20.9296H225.8V16.9011H238.504ZM228.936 11.6066H234.144V32.3531C234.144 33.0533 234.25 33.5904 234.461 33.9644C234.681 34.3289 234.969 34.5783 235.324 34.7126C235.679 34.8469 236.072 34.914 236.504 34.914C236.83 34.914 237.127 34.89 237.396 34.8421C237.674 34.7941 237.885 34.751 238.029 34.7126L238.906 38.7842C238.628 38.8801 238.23 38.9856 237.712 39.1007C237.204 39.2158 236.581 39.283 235.842 39.3021C234.538 39.3405 233.363 39.1439 232.317 38.7123C231.272 38.271 230.442 37.59 229.828 36.6693C229.224 35.7485 228.926 34.5975 228.936 33.2163V11.6066ZM255.04 29.7058V16.9011H260.249V39H255.199V35.0723H254.968C254.47 36.3096 253.65 37.3215 252.508 38.108C251.376 38.8945 249.981 39.2877 248.321 39.2877C246.873 39.2877 245.593 38.9664 244.48 38.3238C243.377 37.6716 242.514 36.7268 241.89 35.4895C241.267 34.2426 240.955 32.7367 240.955 30.9719V16.9011H246.163V30.1662C246.163 31.5666 246.547 32.6792 247.314 33.5041C248.082 34.3289 249.089 34.7414 250.336 34.7414C251.103 34.7414 251.846 34.5543 252.566 34.1803C253.285 33.8062 253.875 33.2499 254.335 32.5113C254.805 31.7632 255.04 30.828 255.04 29.7058ZM263.7 39V16.9011H268.678V20.6562H268.937C269.397 19.3901 270.16 18.4022 271.225 17.6924C272.289 16.9731 273.56 16.6134 275.037 16.6134C276.533 16.6134 277.795 16.9778 278.821 17.7068C279.857 18.4262 280.586 19.4093 281.008 20.6562H281.238C281.727 19.4285 282.552 18.4501 283.713 17.7212C284.883 16.9826 286.269 16.6134 287.871 16.6134C289.904 16.6134 291.563 17.256 292.849 18.5413C294.134 19.8265 294.777 21.7017 294.777 24.1667V39H289.554V24.9724C289.554 23.6008 289.19 22.5985 288.461 21.9654C287.732 21.3228 286.84 21.0015 285.785 21.0015C284.528 21.0015 283.545 21.3947 282.835 22.1813C282.135 22.9582 281.785 23.9701 281.785 25.217V39H276.677V24.7566C276.677 23.6152 276.332 22.704 275.641 22.023C274.96 21.342 274.068 21.0015 272.965 21.0015C272.217 21.0015 271.536 21.1933 270.922 21.577C270.309 21.9511 269.819 22.4834 269.455 23.174C269.09 23.855 268.908 24.6511 268.908 25.5623V39H263.7ZM305.237 14.0093V9.53482H328.746V14.0093H319.638V39H314.344V14.0093H305.237ZM336.351 26.0514V39H331.143V9.53482H336.236V20.6562H336.495C337.013 19.4093 337.814 18.4262 338.898 17.7068C339.991 16.9778 341.382 16.6134 343.07 16.6134C344.605 16.6134 345.943 16.9347 347.084 17.5773C348.226 18.2199 349.108 19.1599 349.732 20.3972C350.365 21.6345 350.681 23.1452 350.681 24.9292V39H345.473V25.7349C345.473 24.2482 345.089 23.0924 344.322 22.2676C343.564 21.4331 342.5 21.0159 341.128 21.0159C340.207 21.0159 339.382 21.2173 338.653 21.6201C337.934 22.0134 337.368 22.5841 336.956 23.3322C336.553 24.0804 336.351 24.9868 336.351 26.0514ZM363.869 39.4316C361.654 39.4316 359.74 38.9712 358.129 38.0504C356.527 37.1201 355.294 35.806 354.431 34.1083C353.568 32.401 353.136 30.3916 353.136 28.08C353.136 25.8069 353.568 23.8118 354.431 22.0949C355.304 20.3685 356.522 19.0256 358.086 18.0665C359.649 17.0977 361.486 16.6134 363.596 16.6134C364.958 16.6134 366.243 16.834 367.452 17.2752C368.67 17.7068 369.744 18.3782 370.675 19.2894C371.614 20.2006 372.353 21.3612 372.89 22.7711C373.427 24.1715 373.696 25.8404 373.696 27.7779V29.3749H355.582V25.8644H368.703C368.694 24.8669 368.478 23.9797 368.056 23.2028C367.634 22.4162 367.044 21.7976 366.286 21.3468C365.538 20.896 364.665 20.6706 363.668 20.6706C362.603 20.6706 361.668 20.9296 360.862 21.4475C360.057 21.9559 359.428 22.6273 358.978 23.4617C358.536 24.2866 358.311 25.193 358.301 26.1809V29.2454C358.301 30.5307 358.536 31.6337 359.006 32.5545C359.476 33.4657 360.133 34.1659 360.977 34.655C361.822 35.1346 362.809 35.3744 363.941 35.3744C364.699 35.3744 365.385 35.2689 365.999 35.0579C366.612 34.8373 367.145 34.516 367.596 34.0939C368.046 33.6719 368.387 33.1492 368.617 32.5257L373.48 33.0724C373.173 34.3577 372.588 35.4799 371.725 36.4391C370.871 37.3886 369.778 38.1272 368.444 38.6547C367.111 39.1726 365.586 39.4316 363.869 39.4316ZM376.198 39V16.9011H381.176V20.6562H381.435C381.895 19.3901 382.658 18.4022 383.722 17.6924C384.787 16.9731 386.058 16.6134 387.535 16.6134C389.031 16.6134 390.292 16.9778 391.319 17.7068C392.355 18.4262 393.084 19.4093 393.506 20.6562H393.736C394.225 19.4285 395.05 18.4501 396.21 17.7212C397.381 16.9826 398.767 16.6134 400.368 16.6134C402.402 16.6134 404.061 17.256 405.346 18.5413C406.632 19.8265 407.274 21.7017 407.274 24.1667V39H402.052V24.9724C402.052 23.6008 401.687 22.5985 400.958 21.9654C400.229 21.3228 399.337 21.0015 398.282 21.0015C397.026 21.0015 396.043 21.3947 395.333 22.1813C394.633 22.9582 394.283 23.9701 394.283 25.217V39H389.175V24.7566C389.175 23.6152 388.83 22.704 388.139 22.023C387.458 21.342 386.566 21.0015 385.463 21.0015C384.715 21.0015 384.034 21.1933 383.42 21.577C382.806 21.9511 382.317 22.4834 381.953 23.174C381.588 23.855 381.406 24.6511 381.406 25.5623V39H376.198ZM420.437 39.4316C418.222 39.4316 416.308 38.9712 414.697 38.0504C413.095 37.1201 411.862 35.806 410.999 34.1083C410.136 32.401 409.704 30.3916 409.704 28.08C409.704 25.8069 410.136 23.8118 410.999 22.0949C411.872 20.3685 413.09 19.0256 414.654 18.0665C416.217 17.0977 418.054 16.6134 420.164 16.6134C421.526 16.6134 422.811 16.834 424.02 17.2752C425.238 17.7068 426.312 18.3782 427.242 19.2894C428.182 20.2006 428.921 21.3612 429.458 22.7711C429.995 24.1715 430.264 25.8404 430.264 27.7779V29.3749H412.15V25.8644H425.271C425.262 24.8669 425.046 23.9797 424.624 23.2028C424.202 22.4162 423.612 21.7976 422.854 21.3468C422.106 20.896 421.233 20.6706 420.236 20.6706C419.171 20.6706 418.236 20.9296 417.43 21.4475C416.625 21.9559 415.996 22.6273 415.546 23.4617C415.104 24.2866 414.879 25.193 414.869 26.1809V29.2454C414.869 30.5307 415.104 31.6337 415.574 32.5545C416.044 33.4657 416.701 34.1659 417.545 34.655C418.389 35.1346 419.377 35.3744 420.509 35.3744C421.267 35.3744 421.953 35.2689 422.567 35.0579C423.18 34.8373 423.713 34.516 424.164 34.0939C424.614 33.6719 424.955 33.1492 425.185 32.5257L430.048 33.0724C429.741 34.3577 429.156 35.4799 428.293 36.4391C427.439 37.3886 426.346 38.1272 425.012 38.6547C423.679 39.1726 422.154 39.4316 420.437 39.4316Z" fill="url(#paint0_linear_5_419)"/>
<path d="M1.87038 57.5378V55.8599H10.6862V57.5378H7.27101V66.9093H5.28556V57.5378H1.87038ZM10.7248 66.9093V58.6223H12.6185V60.0034H12.7048C12.8559 59.5251 13.1148 59.1564 13.4817 58.8974C13.8522 58.6349 14.2748 58.5036 14.7496 58.5036C14.8575 58.5036 14.978 58.509 15.1111 58.5198C15.2478 58.5269 15.3611 58.5395 15.451 58.5575V60.3541C15.3683 60.3254 15.237 60.3002 15.0571 60.2786C14.8809 60.2534 14.71 60.2408 14.5446 60.2408C14.1885 60.2408 13.8684 60.3182 13.5842 60.4728C13.3037 60.6239 13.0825 60.8343 12.9206 61.1041C12.7588 61.3738 12.6778 61.685 12.6778 62.0374V66.9093H10.7248ZM18.2708 67.0766C17.7457 67.0766 17.2727 66.9831 16.8518 66.796C16.4346 66.6054 16.1037 66.3249 15.8591 65.9544C15.6181 65.5839 15.4976 65.1271 15.4976 64.584C15.4976 64.1164 15.584 63.7298 15.7566 63.424C15.9293 63.1183 16.1649 62.8737 16.4634 62.6903C16.7619 62.5068 17.0982 62.3684 17.4723 62.2748C17.85 62.1777 18.2402 62.1076 18.6431 62.0644C19.1286 62.0141 19.5225 61.9691 19.8246 61.9295C20.1268 61.8864 20.3462 61.8216 20.4828 61.7353C20.6231 61.6454 20.6933 61.5069 20.6933 61.3199V61.2875C20.6933 60.8811 20.5728 60.5663 20.3318 60.3433C20.0908 60.1203 19.7437 60.0088 19.2905 60.0088C18.8121 60.0088 18.4327 60.1131 18.1521 60.3218C17.8751 60.5304 17.6881 60.7768 17.591 61.0609L15.7674 60.8019C15.9113 60.2984 16.1487 59.8776 16.4796 59.5395C16.8105 59.1978 17.2151 58.9424 17.6935 58.7733C18.1719 58.6007 18.7006 58.5144 19.2797 58.5144C19.679 58.5144 20.0764 58.5611 20.4721 58.6546C20.8677 58.7482 21.2292 58.9028 21.5565 59.1186C21.8838 59.3308 22.1464 59.6204 22.3442 59.9873C22.5456 60.3541 22.6463 60.8127 22.6463 61.363V66.9093H20.7688V65.771H20.704C20.5854 66.0011 20.4181 66.217 20.2023 66.4184C19.9901 66.6162 19.7221 66.7763 19.3984 66.8986C19.0783 67.0173 18.7024 67.0766 18.2708 67.0766ZM18.7779 65.6415C19.17 65.6415 19.5099 65.5641 19.7976 65.4095C20.0854 65.2512 20.3066 65.0426 20.4613 64.7836C20.6195 64.5247 20.6987 64.2423 20.6987 63.9366V62.96C20.6375 63.0104 20.5332 63.0571 20.3857 63.1003C20.2419 63.1435 20.08 63.1812 19.9002 63.2136C19.7203 63.246 19.5423 63.2748 19.366 63.2999C19.1898 63.3251 19.0369 63.3467 18.9074 63.3647C18.6161 63.4042 18.3553 63.469 18.1251 63.5589C17.8949 63.6488 17.7133 63.7747 17.5802 63.9366C17.4471 64.0948 17.3806 64.2999 17.3806 64.5516C17.3806 64.9113 17.5119 65.1829 17.7744 65.3663C18.037 65.5497 18.3715 65.6415 18.7779 65.6415ZM25.8492 62.0536V66.9093H23.8961V58.6223H25.7629V60.0304H25.86C26.0506 59.5664 26.3546 59.1978 26.7718 58.9244C27.1926 58.651 27.7124 58.5144 28.331 58.5144C28.9029 58.5144 29.4011 58.6367 29.8255 58.8812C30.2535 59.1258 30.5844 59.4801 30.8182 59.9441C31.0556 60.4081 31.1725 60.971 31.1689 61.6328V66.9093H29.2158V61.9349C29.2158 61.381 29.072 60.9476 28.7842 60.6347C28.5001 60.3218 28.1062 60.1653 27.6027 60.1653C27.261 60.1653 26.957 60.2408 26.6909 60.3919C26.4283 60.5394 26.2215 60.7534 26.0704 61.0339C25.9229 61.3145 25.8492 61.6544 25.8492 62.0536ZM38.9901 60.8127L37.2097 61.007C37.1593 60.8271 37.0712 60.6581 36.9453 60.4998C36.823 60.3415 36.6576 60.2139 36.4489 60.1167C36.2403 60.0196 35.985 59.9711 35.6828 59.9711C35.2764 59.9711 34.9347 60.0592 34.6577 60.2354C34.3844 60.4117 34.2495 60.6401 34.2531 60.9206C34.2495 61.1616 34.3376 61.3576 34.5174 61.5087C34.7009 61.6598 35.003 61.7839 35.4238 61.881L36.8374 62.1831C37.6215 62.3522 38.2042 62.6201 38.5855 62.987C38.9703 63.3539 39.1645 63.8341 39.1681 64.4275C39.1645 64.9491 39.0117 65.4095 38.7095 65.8087C38.411 66.2044 37.9956 66.5137 37.4632 66.7367C36.9309 66.9597 36.3195 67.0712 35.6289 67.0712C34.6146 67.0712 33.7981 66.859 33.1794 66.4346C32.5608 66.0065 32.1921 65.4113 32.0734 64.6487L33.9779 64.4653C34.0642 64.8394 34.2477 65.1217 34.5282 65.3124C34.8088 65.503 35.1739 65.5983 35.6235 65.5983C36.0875 65.5983 36.4597 65.503 36.7403 65.3124C37.0244 65.1217 37.1665 64.8861 37.1665 64.6056C37.1665 64.3682 37.0748 64.1722 36.8914 64.0175C36.7115 63.8628 36.431 63.7441 36.0497 63.6614L34.6361 63.3647C33.8412 63.1992 33.2532 62.9205 32.8719 62.5284C32.4906 62.1328 32.3018 61.6328 32.3054 61.0285C32.3018 60.5178 32.4403 60.0754 32.7208 59.7013C33.005 59.3236 33.3988 59.0323 33.9024 58.8273C34.4095 58.6187 34.994 58.5144 35.6558 58.5144C36.627 58.5144 37.3913 58.7212 37.9488 59.1348C38.5099 59.5484 38.857 60.1078 38.9901 60.8127ZM42.0176 55.8599V66.9093H40.0645V55.8599H42.0176ZM48.5939 63.424V58.6223H50.5469V66.9093H48.6532V65.4364H48.5669C48.3799 65.9004 48.0723 66.2799 47.6443 66.5748C47.2199 66.8698 46.6965 67.0173 46.0743 67.0173C45.5312 67.0173 45.051 66.8968 44.6338 66.6558C44.2201 66.4112 43.8964 66.0569 43.6626 65.5929C43.4288 65.1253 43.3119 64.5606 43.3119 63.8988V58.6223H45.265V63.5967C45.265 64.1218 45.4089 64.539 45.6966 64.8484C45.9844 65.1577 46.362 65.3124 46.8296 65.3124C47.1174 65.3124 47.3961 65.2422 47.6659 65.1019C47.9356 64.9617 48.1569 64.7531 48.3295 64.4761C48.5057 64.1955 48.5939 63.8449 48.5939 63.424ZM55.4561 67.0712C54.6288 67.0712 53.9184 66.8896 53.3249 66.5263C52.7351 66.163 52.2801 65.6612 51.9599 65.021C51.6434 64.3772 51.4852 63.6362 51.4852 62.7982C51.4852 61.9565 51.647 61.2138 51.9707 60.5699C52.2944 59.9225 52.7512 59.419 53.3411 59.0593C53.9346 58.696 54.636 58.5144 55.4453 58.5144C56.1179 58.5144 56.7131 58.6385 57.2311 58.8866C57.7526 59.1312 58.1681 59.4783 58.4774 59.9279C58.7867 60.3739 58.963 60.8955 59.0061 61.4925H57.1394C57.0638 61.0933 56.884 60.7606 56.5998 60.4944C56.3193 60.2247 55.9434 60.0898 55.4722 60.0898C55.073 60.0898 54.7223 60.1977 54.4202 60.4135C54.118 60.6257 53.8824 60.9314 53.7134 61.3307C53.5479 61.7299 53.4652 62.2083 53.4652 62.7658C53.4652 63.3305 53.5479 63.8161 53.7134 64.2225C53.8788 64.6254 54.1108 64.9365 54.4094 65.1559C54.7115 65.3717 55.0658 65.4796 55.4722 65.4796C55.76 65.4796 56.0172 65.4257 56.2438 65.3178C56.474 65.2063 56.6664 65.0462 56.8211 64.8376C56.9757 64.629 57.0818 64.3754 57.1394 64.0768H59.0061C58.9594 64.6631 58.7867 65.1829 58.4882 65.6361C58.1896 66.0857 57.7832 66.4382 57.2689 66.6935C56.7545 66.9453 56.1502 67.0712 55.4561 67.0712ZM63.5645 67.0712C62.7337 67.0712 62.0161 66.8986 61.4118 66.5533C60.8112 66.2044 60.349 65.7116 60.0253 65.075C59.7016 64.4347 59.5397 63.6812 59.5397 62.8144C59.5397 61.9619 59.7016 61.2138 60.0253 60.5699C60.3526 59.9225 60.8094 59.419 61.3957 59.0593C61.9819 58.696 62.6707 58.5144 63.462 58.5144C63.9728 58.5144 64.4548 58.5971 64.908 58.7625C65.3648 58.9244 65.7676 59.1762 66.1165 59.5179C66.469 59.8596 66.7459 60.2948 66.9474 60.8235C67.1488 61.3487 67.2495 61.9745 67.2495 62.7011V63.2999H60.4569V61.9835H65.3773C65.3737 61.6094 65.2928 61.2767 65.1346 60.9854C64.9763 60.6904 64.7551 60.4584 64.4709 60.2894C64.1904 60.1203 63.8631 60.0358 63.489 60.0358C63.0898 60.0358 62.7391 60.1329 62.4369 60.3272C62.1348 60.5178 61.8992 60.7696 61.7302 61.0825C61.5647 61.3918 61.4802 61.7317 61.4766 62.1022V63.2514C61.4766 63.7334 61.5647 64.147 61.741 64.4923C61.9172 64.834 62.1636 65.0965 62.4801 65.28C62.7966 65.4598 63.1671 65.5497 63.5915 65.5497C63.8757 65.5497 64.1328 65.5102 64.363 65.4311C64.5932 65.3483 64.7929 65.2278 64.9619 65.0696C65.131 64.9113 65.2586 64.7153 65.345 64.4815L67.1686 64.6865C67.0535 65.1685 66.8341 65.5893 66.5103 65.949C66.1902 66.3051 65.7802 66.582 65.2802 66.7799C64.7803 66.9741 64.2084 67.0712 63.5645 67.0712ZM70.1408 62.0536V66.9093H68.1877V58.6223H70.0545V60.0304H70.1516C70.3422 59.5664 70.6461 59.1978 71.0634 58.9244C71.4842 58.651 72.0039 58.5144 72.6226 58.5144C73.1945 58.5144 73.6926 58.6367 74.1171 58.8812C74.5451 59.1258 74.876 59.4801 75.1098 59.9441C75.3472 60.4081 75.4641 60.971 75.4605 61.6328V66.9093H73.5074V61.9349C73.5074 61.381 73.3635 60.9476 73.0758 60.6347C72.7916 60.3218 72.3978 60.1653 71.8942 60.1653C71.5525 60.1653 71.2486 60.2408 70.9824 60.3919C70.7199 60.5394 70.5131 60.7534 70.362 61.0339C70.2145 61.3145 70.1408 61.6544 70.1408 62.0536ZM80.87 58.6223V60.1329H76.106V58.6223H80.87ZM77.2822 56.6368H79.2353V64.4167C79.2353 64.6793 79.2748 64.8807 79.3539 65.021C79.4367 65.1577 79.5446 65.2512 79.6777 65.3016C79.8107 65.3519 79.9582 65.3771 80.1201 65.3771C80.2424 65.3771 80.3539 65.3681 80.4546 65.3501C80.5589 65.3321 80.638 65.316 80.692 65.3016L81.0211 66.8284C80.9168 66.8644 80.7675 66.904 80.5733 66.9471C80.3826 66.9903 80.1488 67.0155 79.8719 67.0226C79.3827 67.037 78.9421 66.9633 78.5501 66.8014C78.158 66.636 77.8469 66.3806 77.6167 66.0353C77.3901 65.69 77.2786 65.2584 77.2822 64.7405V56.6368ZM82.9925 67.028C82.6652 67.028 82.3846 66.9129 82.1508 66.6827C81.917 66.4526 81.8019 66.172 81.8055 65.8411C81.8019 65.5174 81.917 65.2404 82.1508 65.0102C82.3846 64.78 82.6652 64.6649 82.9925 64.6649C83.309 64.6649 83.5842 64.78 83.818 65.0102C84.0553 65.2404 84.1758 65.5174 84.1794 65.8411C84.1758 66.0605 84.1183 66.2601 84.0068 66.44C83.8989 66.6198 83.755 66.7637 83.5752 66.8716C83.3989 66.9759 83.2047 67.028 82.9925 67.028ZM88.2814 55.8599H90.7308L94.0112 63.8664H94.1406L97.4209 55.8599H99.8704V66.9093H97.9497V59.3183H97.8472L94.7935 66.877H93.3583L90.3046 59.3021H90.2021V66.9093H88.2814V55.8599ZM102.464 70.017C102.197 70.017 101.951 69.9954 101.724 69.9523C101.501 69.9127 101.323 69.8659 101.19 69.812L101.644 68.2905C101.928 68.3733 102.181 68.4128 102.404 68.4092C102.627 68.4056 102.823 68.3355 102.992 68.1988C103.165 68.0657 103.311 67.8427 103.429 67.5298L103.597 67.082L100.591 58.6223H102.663L104.573 64.8807H104.659L106.575 58.6223H108.652L105.334 67.9129C105.179 68.3517 104.974 68.7275 104.719 69.0405C104.463 69.357 104.15 69.598 103.78 69.7634C103.413 69.9325 102.974 70.017 102.464 70.017ZM115.839 60.8127L114.059 61.007C114.008 60.8271 113.92 60.6581 113.794 60.4998C113.672 60.3415 113.507 60.2139 113.298 60.1167C113.089 60.0196 112.834 59.9711 112.532 59.9711C112.125 59.9711 111.784 60.0592 111.507 60.2354C111.233 60.4117 111.099 60.6401 111.102 60.9206C111.099 61.1616 111.187 61.3576 111.367 61.5087C111.55 61.6598 111.852 61.7839 112.273 61.881L113.686 62.1831C114.471 62.3522 115.053 62.6201 115.435 62.987C115.819 63.3539 116.014 63.8341 116.017 64.4275C116.014 64.9491 115.861 65.4095 115.559 65.8087C115.26 66.2044 114.845 66.5137 114.312 66.7367C113.78 66.9597 113.169 67.0712 112.478 67.0712C111.464 67.0712 110.647 66.859 110.029 66.4346C109.41 66.0065 109.041 65.4113 108.922 64.6487L110.827 64.4653C110.913 64.8394 111.097 65.1217 111.377 65.3124C111.658 65.503 112.023 65.5983 112.473 65.5983C112.937 65.5983 113.309 65.503 113.589 65.3124C113.874 65.1217 114.016 64.8861 114.016 64.6056C114.016 64.3682 113.924 64.1722 113.74 64.0175C113.561 63.8628 113.28 63.7441 112.899 63.6614L111.485 63.3647C110.69 63.1992 110.102 62.9205 109.721 62.5284C109.34 62.1328 109.151 61.6328 109.154 61.0285C109.151 60.5178 109.289 60.0754 109.57 59.7013C109.854 59.3236 110.248 59.0323 110.751 58.8273C111.259 58.6187 111.843 58.5144 112.505 58.5144C113.476 58.5144 114.24 58.7212 114.798 59.1348C115.359 59.5484 115.706 60.1078 115.839 60.8127ZM121.052 58.6223V60.1329H116.288V58.6223H121.052ZM117.464 56.6368H119.417V64.4167C119.417 64.6793 119.457 64.8807 119.536 65.021C119.618 65.1577 119.726 65.2512 119.859 65.3016C119.993 65.3519 120.14 65.3771 120.302 65.3771C120.424 65.3771 120.536 65.3681 120.636 65.3501C120.741 65.3321 120.82 65.316 120.874 65.3016L121.203 66.8284C121.099 66.8644 120.949 66.904 120.755 66.9471C120.564 66.9903 120.331 67.0155 120.054 67.0226C119.564 67.037 119.124 66.9633 118.732 66.8014C118.34 66.636 118.029 66.3806 117.798 66.0353C117.572 65.69 117.46 65.2584 117.464 64.7405V56.6368ZM125.551 67.0712C124.72 67.0712 124.002 66.8986 123.398 66.5533C122.797 66.2044 122.335 65.7116 122.012 65.075C121.688 64.4347 121.526 63.6812 121.526 62.8144C121.526 61.9619 121.688 61.2138 122.012 60.5699C122.339 59.9225 122.796 59.419 123.382 59.0593C123.968 58.696 124.657 58.5144 125.448 58.5144C125.959 58.5144 126.441 58.5971 126.894 58.7625C127.351 58.9244 127.754 59.1762 128.103 59.5179C128.455 59.8596 128.732 60.2948 128.934 60.8235C129.135 61.3487 129.236 61.9745 129.236 62.7011V63.2999H122.443V61.9835H127.364C127.36 61.6094 127.279 61.2767 127.121 60.9854C126.963 60.6904 126.741 60.4584 126.457 60.2894C126.177 60.1203 125.849 60.0358 125.475 60.0358C125.076 60.0358 124.725 60.1329 124.423 60.3272C124.121 60.5178 123.886 60.7696 123.716 61.0825C123.551 61.3918 123.466 61.7317 123.463 62.1022V63.2514C123.463 63.7334 123.551 64.147 123.727 64.4923C123.904 64.834 124.15 65.0965 124.466 65.28C124.783 65.4598 125.153 65.5497 125.578 65.5497C125.862 65.5497 126.119 65.5102 126.349 65.4311C126.58 65.3483 126.779 65.2278 126.948 65.0696C127.117 64.9113 127.245 64.7153 127.331 64.4815L129.155 64.6865C129.04 65.1685 128.82 65.5893 128.497 65.949C128.177 66.3051 127.766 66.582 127.267 66.7799C126.767 66.9741 126.195 67.0712 125.551 67.0712ZM130.174 66.9093V58.6223H132.068V60.0034H132.154C132.305 59.5251 132.564 59.1564 132.931 58.8974C133.301 58.6349 133.724 58.5036 134.199 58.5036C134.307 58.5036 134.427 58.509 134.56 58.5198C134.697 58.5269 134.81 58.5395 134.9 58.5575V60.3541C134.818 60.3254 134.686 60.3002 134.506 60.2786C134.33 60.2534 134.159 60.2408 133.994 60.2408C133.638 60.2408 133.318 60.3182 133.033 60.4728C132.753 60.6239 132.532 60.8343 132.37 61.1041C132.208 61.3738 132.127 61.685 132.127 62.0374V66.9093H130.174ZM135.484 66.9093V58.6223H137.437V66.9093H135.484ZM136.466 57.4461C136.156 57.4461 135.89 57.3436 135.667 57.1386C135.444 56.93 135.333 56.68 135.333 56.3886C135.333 56.0937 135.444 55.8437 135.667 55.6387C135.89 55.4301 136.156 55.3258 136.466 55.3258C136.779 55.3258 137.045 55.4301 137.264 55.6387C137.487 55.8437 137.599 56.0937 137.599 56.3886C137.599 56.68 137.487 56.93 137.264 57.1386C137.045 57.3436 136.779 57.4461 136.466 57.4461ZM142.346 67.0712C141.537 67.0712 140.835 66.8932 140.242 66.5371C139.648 66.181 139.188 65.6828 138.861 65.0426C138.537 64.4024 138.375 63.6542 138.375 62.7982C138.375 61.9421 138.537 61.1922 138.861 60.5484C139.188 59.9045 139.648 59.4046 140.242 59.0485C140.835 58.6924 141.537 58.5144 142.346 58.5144C143.155 58.5144 143.857 58.6924 144.45 59.0485C145.044 59.4046 145.502 59.9045 145.826 60.5484C146.153 61.1922 146.317 61.9421 146.317 62.7982C146.317 63.6542 146.153 64.4024 145.826 65.0426C145.502 65.6828 145.044 66.181 144.45 66.5371C143.857 66.8932 143.155 67.0712 142.346 67.0712ZM142.357 65.5066C142.796 65.5066 143.162 65.3861 143.457 65.1451C143.752 64.9005 143.972 64.5732 144.116 64.1632C144.263 63.7531 144.337 63.2963 144.337 62.7928C144.337 62.2856 144.263 61.827 144.116 61.417C143.972 61.0034 143.752 60.6743 143.457 60.4297C143.162 60.1851 142.796 60.0628 142.357 60.0628C141.907 60.0628 141.533 60.1851 141.235 60.4297C140.94 60.6743 140.718 61.0034 140.571 61.417C140.427 61.827 140.355 62.2856 140.355 62.7928C140.355 63.2963 140.427 63.7531 140.571 64.1632C140.718 64.5732 140.94 64.9005 141.235 65.1451C141.533 65.3861 141.907 65.5066 142.357 65.5066ZM152.542 63.424V58.6223H154.495V66.9093H152.602V65.4364H152.515C152.328 65.9004 152.021 66.2799 151.593 66.5748C151.168 66.8698 150.645 67.0173 150.023 67.0173C149.48 67.0173 148.999 66.8968 148.582 66.6558C148.169 66.4112 147.845 66.0569 147.611 65.5929C147.377 65.1253 147.26 64.5606 147.26 63.8988V58.6223H149.214V63.5967C149.214 64.1218 149.357 64.539 149.645 64.8484C149.933 65.1577 150.311 65.3124 150.778 65.3124C151.066 65.3124 151.345 65.2422 151.614 65.1019C151.884 64.9617 152.105 64.7531 152.278 64.4761C152.454 64.1955 152.542 63.8449 152.542 63.424ZM162.34 60.8127L160.559 61.007C160.509 60.8271 160.421 60.6581 160.295 60.4998C160.172 60.3415 160.007 60.2139 159.798 60.1167C159.59 60.0196 159.334 59.9711 159.032 59.9711C158.626 59.9711 158.284 60.0592 158.007 60.2354C157.734 60.4117 157.599 60.6401 157.603 60.9206C157.599 61.1616 157.687 61.3576 157.867 61.5087C158.05 61.6598 158.352 61.7839 158.773 61.881L160.187 62.1831C160.971 62.3522 161.554 62.6201 161.935 62.987C162.32 63.3539 162.514 63.8341 162.518 64.4275C162.514 64.9491 162.361 65.4095 162.059 65.8087C161.76 66.2044 161.345 66.5137 160.813 66.7367C160.28 66.9597 159.669 67.0712 158.978 67.0712C157.964 67.0712 157.148 66.859 156.529 66.4346C155.91 66.0065 155.542 65.4113 155.423 64.6487L157.327 64.4653C157.414 64.8394 157.597 65.1217 157.878 65.3124C158.158 65.503 158.523 65.5983 158.973 65.5983C159.437 65.5983 159.809 65.503 160.09 65.3124C160.374 65.1217 160.516 64.8861 160.516 64.6056C160.516 64.3682 160.424 64.1722 160.241 64.0175C160.061 63.8628 159.78 63.7441 159.399 63.6614L157.986 63.3647C157.191 63.1992 156.603 62.9205 156.221 62.5284C155.84 62.1328 155.651 61.6328 155.655 61.0285C155.651 60.5178 155.79 60.0754 156.07 59.7013C156.354 59.3236 156.748 59.0323 157.252 58.8273C157.759 58.6187 158.343 58.5144 159.005 58.5144C159.976 58.5144 160.741 58.7212 161.298 59.1348C161.859 59.5484 162.206 60.1078 162.34 60.8127ZM164.617 67.028C164.29 67.028 164.009 66.9129 163.775 66.6827C163.542 66.4526 163.427 66.172 163.43 65.8411C163.427 65.5174 163.542 65.2404 163.775 65.0102C164.009 64.78 164.29 64.6649 164.617 64.6649C164.934 64.6649 165.209 64.78 165.443 65.0102C165.68 65.2404 165.8 65.5174 165.804 65.8411C165.8 66.0605 165.743 66.2601 165.631 66.44C165.524 66.6198 165.38 66.7637 165.2 66.8716C165.024 66.9759 164.829 67.028 164.617 67.028ZM169.151 55.8599H171.411L174.114 60.748H174.222L176.925 55.8599H179.186L175.166 62.7874V66.9093H173.17V62.7874L169.151 55.8599ZM181.875 67.0712C181.066 67.0712 180.364 66.8932 179.771 66.5371C179.177 66.181 178.717 65.6828 178.39 65.0426C178.066 64.4024 177.904 63.6542 177.904 62.7982C177.904 61.9421 178.066 61.1922 178.39 60.5484C178.717 59.9045 179.177 59.4046 179.771 59.0485C180.364 58.6924 181.066 58.5144 181.875 58.5144C182.684 58.5144 183.386 58.6924 183.979 59.0485C184.572 59.4046 185.031 59.9045 185.355 60.5484C185.682 61.1922 185.846 61.9421 185.846 62.7982C185.846 63.6542 185.682 64.4024 185.355 65.0426C185.031 65.6828 184.572 66.181 183.979 66.5371C183.386 66.8932 182.684 67.0712 181.875 67.0712ZM181.886 65.5066C182.324 65.5066 182.691 65.3861 182.986 65.1451C183.281 64.9005 183.501 64.5732 183.644 64.1632C183.792 63.7531 183.866 63.2963 183.866 62.7928C183.866 62.2856 183.792 61.827 183.644 61.417C183.501 61.0034 183.281 60.6743 182.986 60.4297C182.691 60.1851 182.324 60.0628 181.886 60.0628C181.436 60.0628 181.062 60.1851 180.763 60.4297C180.468 60.6743 180.247 61.0034 180.1 61.417C179.956 61.827 179.884 62.2856 179.884 62.7928C179.884 63.2963 179.956 63.7531 180.1 64.1632C180.247 64.5732 180.468 64.9005 180.763 65.1451C181.062 65.3861 181.436 65.5066 181.886 65.5066ZM192.071 63.424V58.6223H194.024V66.9093H192.131V65.4364H192.044C191.857 65.9004 191.55 66.2799 191.122 66.5748C190.697 66.8698 190.174 67.0173 189.552 67.0173C189.009 67.0173 188.528 66.8968 188.111 66.6558C187.698 66.4112 187.374 66.0569 187.14 65.5929C186.906 65.1253 186.789 64.5606 186.789 63.8988V58.6223H188.742V63.5967C188.742 64.1218 188.886 64.539 189.174 64.8484C189.462 65.1577 189.839 65.3124 190.307 65.3124C190.595 65.3124 190.874 65.2422 191.143 65.1019C191.413 64.9617 191.634 64.7531 191.807 64.4761C191.983 64.1955 192.071 63.8449 192.071 63.424ZM195.319 66.9093V58.6223H197.212V60.0034H197.299C197.45 59.5251 197.709 59.1564 198.076 58.8974C198.446 58.6349 198.869 58.5036 199.344 58.5036C199.451 58.5036 199.572 58.509 199.705 58.5198C199.842 58.5269 199.955 58.5395 200.045 58.5575V60.3541C199.962 60.3254 199.831 60.3002 199.651 60.2786C199.475 60.2534 199.304 60.2408 199.139 60.2408C198.782 60.2408 198.462 60.3182 198.178 60.4728C197.898 60.6239 197.676 60.8343 197.515 61.1041C197.353 61.3738 197.272 61.685 197.272 62.0374V66.9093H195.319ZM207.178 60.8127L205.398 61.007C205.347 60.8271 205.259 60.6581 205.133 60.4998C205.011 60.3415 204.846 60.2139 204.637 60.1167C204.428 60.0196 204.173 59.9711 203.871 59.9711C203.464 59.9711 203.123 60.0592 202.846 60.2354C202.572 60.4117 202.438 60.6401 202.441 60.9206C202.438 61.1616 202.526 61.3576 202.706 61.5087C202.889 61.6598 203.191 61.7839 203.612 61.881L205.026 62.1831C205.81 62.3522 206.392 62.6201 206.774 62.987C207.158 63.3539 207.353 63.8341 207.356 64.4275C207.353 64.9491 207.2 65.4095 206.898 65.8087C206.599 66.2044 206.184 66.5137 205.651 66.7367C205.119 66.9597 204.508 67.0712 203.817 67.0712C202.803 67.0712 201.986 66.859 201.368 66.4346C200.749 66.0065 200.38 65.4113 200.262 64.6487L202.166 64.4653C202.252 64.8394 202.436 65.1217 202.716 65.3124C202.997 65.503 203.362 65.5983 203.812 65.5983C204.276 65.5983 204.648 65.503 204.928 65.3124C205.213 65.1217 205.355 64.8861 205.355 64.6056C205.355 64.3682 205.263 64.1722 205.079 64.0175C204.9 63.8628 204.619 63.7441 204.238 63.6614L202.824 63.3647C202.029 63.1992 201.441 62.9205 201.06 62.5284C200.679 62.1328 200.49 61.6328 200.494 61.0285C200.49 60.5178 200.628 60.0754 200.909 59.7013C201.193 59.3236 201.587 59.0323 202.091 58.8273C202.598 58.6187 203.182 58.5144 203.844 58.5144C204.815 58.5144 205.579 58.7212 206.137 59.1348C206.698 59.5484 207.045 60.1078 207.178 60.8127ZM209.456 67.028C209.128 67.028 208.848 66.9129 208.614 66.6827C208.38 66.4526 208.265 66.172 208.269 65.8411C208.265 65.5174 208.38 65.2404 208.614 65.0102C208.848 64.78 209.128 64.6649 209.456 64.6649C209.772 64.6649 210.047 64.78 210.281 65.0102C210.519 65.2404 210.639 65.5174 210.643 65.8411C210.639 66.0605 210.582 66.2601 210.47 66.44C210.362 66.6198 210.218 66.7637 210.038 66.8716C209.862 66.9759 209.668 67.028 209.456 67.028Z" fill="#B1CFFB" fill-opacity="0.38"/>
<path d="M679.532 28V16.5696H683.718C684.529 16.5696 685.201 16.7035 685.733 16.9714C686.265 17.2356 686.663 17.5947 686.927 18.0486C687.191 18.4988 687.323 19.0067 687.323 19.5723C687.323 20.0486 687.236 20.4504 687.061 20.7779C686.886 21.1016 686.652 21.362 686.358 21.5592C686.068 21.7527 685.748 21.8941 685.398 21.9834V22.095C685.777 22.1136 686.148 22.2364 686.509 22.4634C686.873 22.6866 687.175 23.0048 687.413 23.4178C687.651 23.8308 687.77 24.3331 687.77 24.9247C687.77 25.5089 687.632 26.0335 687.357 26.4986C687.085 26.96 686.665 27.3265 686.095 27.5981C685.526 27.866 684.799 28 683.913 28H679.532ZM681.257 26.521H683.746C684.572 26.521 685.163 26.361 685.521 26.041C685.878 25.721 686.056 25.321 686.056 24.841C686.056 24.4801 685.965 24.1489 685.783 23.8475C685.601 23.5462 685.34 23.3062 685.002 23.1276C684.667 22.949 684.269 22.8597 683.807 22.8597H681.257V26.521ZM681.257 21.5146H683.567C683.954 21.5146 684.302 21.4402 684.611 21.2913C684.923 21.1425 685.171 20.9341 685.353 20.6662C685.539 20.3946 685.632 20.0746 685.632 19.7063C685.632 19.2337 685.467 18.8374 685.136 18.5174C684.804 18.1975 684.296 18.0375 683.612 18.0375H681.257V21.5146ZM688.943 28V19.4272H690.556V20.789H690.645C690.801 20.3276 691.077 19.9649 691.471 19.7007C691.869 19.4328 692.319 19.2988 692.822 19.2988C692.926 19.2988 693.049 19.3025 693.19 19.31C693.335 19.3174 693.449 19.3267 693.531 19.3379V20.9341C693.464 20.9155 693.345 20.8951 693.173 20.8727C693.002 20.8467 692.831 20.8337 692.66 20.8337C692.265 20.8337 691.914 20.9174 691.605 21.0848C691.3 21.2485 691.058 21.4774 690.879 21.7713C690.701 22.0615 690.612 22.3927 690.612 22.7648V28H688.943ZM697.624 28.173C696.779 28.173 696.052 27.9926 695.442 27.6316C694.835 27.267 694.366 26.7554 694.035 26.0968C693.708 25.4345 693.544 24.6587 693.544 23.7694C693.544 22.8913 693.708 22.1174 694.035 21.4476C694.366 20.7779 694.828 20.2551 695.419 19.8793C696.015 19.5035 696.71 19.3156 697.507 19.3156C697.99 19.3156 698.459 19.3956 698.913 19.5556C699.367 19.7156 699.774 19.9667 700.135 20.309C700.496 20.6513 700.781 21.096 700.989 21.643C701.198 22.1862 701.302 22.8466 701.302 23.6243V24.2159H694.487V22.9657H699.667C699.667 22.5266 699.577 22.1378 699.399 21.7992C699.22 21.4569 698.969 21.1871 698.645 20.9899C698.325 20.7927 697.949 20.6941 697.518 20.6941C697.049 20.6941 696.64 20.8095 696.29 21.0402C695.944 21.2671 695.676 21.5648 695.486 21.9332C695.3 22.2978 695.207 22.6941 695.207 23.122V24.0987C695.207 24.6717 695.308 25.1591 695.509 25.561C695.713 25.9628 695.998 26.2698 696.362 26.4819C696.727 26.6903 697.153 26.7944 697.641 26.7944C697.957 26.7944 698.245 26.7498 698.506 26.6605C698.766 26.5675 698.991 26.4298 699.181 26.2475C699.371 26.0652 699.516 25.8401 699.616 25.5722L701.196 25.8568C701.069 26.3219 700.842 26.7293 700.515 27.0791C700.191 27.4251 699.784 27.6949 699.293 27.8884C698.805 28.0781 698.249 28.173 697.624 28.173ZM704.258 28L701.735 19.4272H703.46L705.14 25.7228H705.224L706.909 19.4272H708.634L710.308 25.6949H710.392L712.061 19.4272H713.785L711.268 28H709.566L707.824 21.8104H707.696L705.955 28H704.258ZM718.064 28.173C717.219 28.173 716.492 27.9926 715.882 27.6316C715.275 27.267 714.806 26.7554 714.475 26.0968C714.148 25.4345 713.984 24.6587 713.984 23.7694C713.984 22.8913 714.148 22.1174 714.475 21.4476C714.806 20.7779 715.268 20.2551 715.859 19.8793C716.455 19.5035 717.151 19.3156 717.947 19.3156C718.431 19.3156 718.899 19.3956 719.353 19.5556C719.807 19.7156 720.215 19.9667 720.576 20.309C720.937 20.6513 721.221 21.096 721.43 21.643C721.638 22.1862 721.742 22.8466 721.742 23.6243V24.2159H714.927V22.9657H720.107C720.107 22.5266 720.017 22.1378 719.839 21.7992C719.66 21.4569 719.409 21.1871 719.085 20.9899C718.765 20.7927 718.39 20.6941 717.958 20.6941C717.489 20.6941 717.08 20.8095 716.73 21.0402C716.384 21.2671 716.116 21.5648 715.926 21.9332C715.74 22.2978 715.647 22.6941 715.647 23.122V24.0987C715.647 24.6717 715.748 25.1591 715.949 25.561C716.153 25.9628 716.438 26.2698 716.803 26.4819C717.167 26.6903 717.593 26.7944 718.081 26.7944C718.397 26.7944 718.685 26.7498 718.946 26.6605C719.206 26.5675 719.431 26.4298 719.621 26.2475C719.811 26.0652 719.956 25.8401 720.057 25.5722L721.636 25.8568C721.51 26.3219 721.283 26.7293 720.955 27.0791C720.631 27.4251 720.224 27.6949 719.733 27.8884C719.245 28.0781 718.689 28.173 718.064 28.173ZM726.064 28.1674C725.372 28.1674 724.754 27.9907 724.211 27.6372C723.672 27.28 723.248 26.7721 722.939 26.1135C722.634 25.4512 722.481 24.6568 722.481 23.7303C722.481 22.8039 722.635 22.0113 722.944 21.3527C723.257 20.6941 723.685 20.19 724.228 19.8402C724.771 19.4904 725.387 19.3156 726.075 19.3156C726.607 19.3156 727.035 19.4049 727.359 19.5835C727.686 19.7583 727.94 19.963 728.118 20.1974C728.3 20.4318 728.442 20.6383 728.542 20.8169H728.643V16.5696H730.312V28H728.682V26.6661H728.542C728.442 26.8484 728.297 27.0568 728.107 27.2912C727.921 27.5256 727.664 27.7302 727.337 27.9051C727.009 28.08 726.585 28.1674 726.064 28.1674ZM726.433 26.7442C726.913 26.7442 727.318 26.6177 727.649 26.3647C727.984 26.108 728.237 25.7526 728.408 25.2987C728.583 24.8447 728.671 24.3164 728.671 23.7136C728.671 23.1183 728.585 22.5973 728.414 22.1508C728.243 21.7043 727.992 21.3564 727.66 21.1072C727.329 20.8579 726.92 20.7332 726.433 20.7332C725.93 20.7332 725.512 20.8634 725.177 21.1239C724.842 21.3844 724.589 21.7397 724.418 22.1899C724.25 22.6401 724.167 23.148 724.167 23.7136C724.167 24.2866 724.252 24.8019 724.423 25.2596C724.594 25.7173 724.847 26.08 725.182 26.3479C725.521 26.6121 725.938 26.7442 726.433 26.7442ZM737.234 28L734.711 19.4272H736.436L738.116 25.7228H738.2L739.885 19.4272H741.61L743.284 25.6949H743.368L745.037 19.4272H746.761L744.244 28H742.542L740.8 21.8104H740.672L738.931 28H737.234ZM747.606 28V19.4272H749.275V28H747.606ZM748.449 18.1044C748.159 18.1044 747.909 18.0077 747.701 17.8142C747.496 17.617 747.394 17.3826 747.394 17.111C747.394 16.8356 747.496 16.6012 747.701 16.4077C747.909 16.2105 748.159 16.1119 748.449 16.1119C748.739 16.1119 748.987 16.2105 749.191 16.4077C749.4 16.6012 749.504 16.8356 749.504 17.111C749.504 17.3826 749.4 17.617 749.191 17.8142C748.987 18.0077 748.739 18.1044 748.449 18.1044ZM754.783 19.4272V20.7667H750.1V19.4272H754.783ZM751.356 17.3733H753.025V25.4829C753.025 25.8066 753.073 26.0503 753.17 26.214C753.267 26.374 753.391 26.4838 753.544 26.5433C753.7 26.5991 753.87 26.627 754.052 26.627C754.186 26.627 754.303 26.6177 754.404 26.5991C754.504 26.5805 754.582 26.5656 754.638 26.5545L754.939 27.933C754.843 27.9702 754.705 28.0074 754.526 28.0447C754.348 28.0856 754.124 28.1079 753.857 28.1116C753.418 28.1191 753.008 28.0409 752.629 27.8772C752.249 27.7135 751.942 27.4605 751.708 27.1182C751.473 26.7758 751.356 26.3461 751.356 25.8289V17.3733ZM757.743 22.9099V28H756.075V16.5696H757.721V20.8225H757.827C758.028 20.3611 758.335 19.9946 758.748 19.723C759.161 19.4514 759.701 19.3156 760.367 19.3156C760.954 19.3156 761.468 19.4365 761.907 19.6783C762.35 19.9202 762.692 20.2811 762.934 20.7611C763.179 21.2374 763.302 21.8327 763.302 22.5471V28H761.633V22.748C761.633 22.1192 761.472 21.6318 761.148 21.2858C760.824 20.936 760.374 20.7611 759.797 20.7611C759.403 20.7611 759.049 20.8448 758.737 21.0123C758.428 21.1797 758.184 21.4253 758.006 21.749C757.831 22.069 757.743 22.456 757.743 22.9099ZM771.822 28.173C770.993 28.173 770.278 27.9851 769.679 27.6093C769.084 27.2298 768.626 26.707 768.306 26.041C767.986 25.3749 767.826 24.6122 767.826 23.7527C767.826 22.882 767.99 22.1136 768.317 21.4476C768.645 20.7779 769.106 20.2551 769.701 19.8793C770.297 19.5035 770.998 19.3156 771.806 19.3156C772.457 19.3156 773.037 19.4365 773.547 19.6783C774.057 19.9165 774.468 20.2514 774.78 20.683C775.097 21.1146 775.285 21.6188 775.344 22.1955H773.72C773.631 21.7936 773.426 21.4476 773.106 21.1574C772.79 20.8672 772.366 20.722 771.833 20.722C771.368 20.722 770.961 20.8448 770.611 21.0904C770.265 21.3323 769.995 21.6783 769.802 22.1285C769.608 22.575 769.512 23.1034 769.512 23.7136C769.512 24.3387 769.607 24.8782 769.796 25.3322C769.986 25.7861 770.254 26.1377 770.6 26.387C770.95 26.6363 771.361 26.761 771.833 26.761C772.15 26.761 772.436 26.7033 772.693 26.5879C772.953 26.4689 773.171 26.2996 773.346 26.08C773.525 25.8605 773.649 25.5963 773.72 25.2875H775.344C775.285 25.8419 775.104 26.3368 774.803 26.7721C774.501 27.2075 774.098 27.5498 773.592 27.7991C773.089 28.0484 772.5 28.173 771.822 28.173ZM780.001 28.173C779.197 28.173 778.496 27.9888 777.897 27.6205C777.298 27.2521 776.833 26.7368 776.502 26.0745C776.17 25.4122 776.005 24.6382 776.005 23.7527C776.005 22.8634 776.17 22.0857 776.502 21.4197C776.833 20.7537 777.298 20.2365 777.897 19.8681C778.496 19.4997 779.197 19.3156 780.001 19.3156C780.805 19.3156 781.506 19.4997 782.105 19.8681C782.704 20.2365 783.169 20.7537 783.501 21.4197C783.832 22.0857 783.997 22.8634 783.997 23.7527C783.997 24.6382 783.832 25.4122 783.501 26.0745C783.169 26.7368 782.704 27.2521 782.105 27.6205C781.506 27.9888 780.805 28.173 780.001 28.173ZM780.007 26.7721C780.528 26.7721 780.959 26.6345 781.302 26.3591C781.644 26.0838 781.897 25.7173 782.061 25.2596C782.228 24.8019 782.312 24.2978 782.312 23.7471C782.312 23.2001 782.228 22.6978 782.061 22.2401C781.897 21.7788 781.644 21.4085 781.302 21.1295C780.959 20.8504 780.528 20.7109 780.007 20.7109C779.482 20.7109 779.047 20.8504 778.701 21.1295C778.358 21.4085 778.103 21.7788 777.936 22.2401C777.772 22.6978 777.69 23.2001 777.69 23.7471C777.69 24.2978 777.772 24.8019 777.936 25.2596C778.103 25.7173 778.358 26.0838 778.701 26.3591C779.047 26.6345 779.482 26.7721 780.007 26.7721ZM789.201 19.4272V20.7667H784.357V19.4272H789.201ZM785.685 28V18.4337C785.685 17.8979 785.802 17.4533 786.037 17.0998C786.271 16.7426 786.582 16.4766 786.969 16.3017C787.356 16.1231 787.776 16.0338 788.23 16.0338C788.565 16.0338 788.851 16.0617 789.09 16.1175C789.328 16.1696 789.504 16.218 789.62 16.2626L789.229 17.6133C789.151 17.591 789.051 17.5649 788.928 17.5351C788.805 17.5017 788.656 17.4849 788.481 17.4849C788.076 17.4849 787.785 17.5854 787.611 17.7863C787.439 17.9872 787.354 18.2775 787.354 18.657V28H785.685ZM794.264 19.4272V20.7667H789.42V19.4272H794.264ZM790.748 28V18.4337C790.748 17.8979 790.865 17.4533 791.1 17.0998C791.334 16.7426 791.645 16.4766 792.032 16.3017C792.419 16.1231 792.839 16.0338 793.293 16.0338C793.628 16.0338 793.914 16.0617 794.153 16.1175C794.391 16.1696 794.567 16.218 794.683 16.2626L794.292 17.6133C794.214 17.591 794.114 17.5649 793.991 17.5351C793.868 17.5017 793.719 17.4849 793.544 17.4849C793.139 17.4849 792.848 17.5854 792.674 17.7863C792.502 17.9872 792.417 18.2775 792.417 18.657V28H790.748ZM798.604 28.173C797.76 28.173 797.032 27.9926 796.422 27.6316C795.816 27.267 795.347 26.7554 795.016 26.0968C794.688 25.4345 794.525 24.6587 794.525 23.7694C794.525 22.8913 794.688 22.1174 795.016 21.4476C795.347 20.7779 795.808 20.2551 796.4 19.8793C796.995 19.5035 797.691 19.3156 798.487 19.3156C798.971 19.3156 799.44 19.3956 799.894 19.5556C800.348 19.7156 800.755 19.9667 801.116 20.309C801.477 20.6513 801.762 21.096 801.97 21.643C802.178 22.1862 802.283 22.8466 802.283 23.6243V24.2159H795.468V22.9657H800.647C800.647 22.5266 800.558 22.1378 800.379 21.7992C800.201 21.4569 799.95 21.1871 799.626 20.9899C799.306 20.7927 798.93 20.6941 798.498 20.6941C798.03 20.6941 797.62 20.8095 797.271 21.0402C796.925 21.2671 796.657 21.5648 796.467 21.9332C796.281 22.2978 796.188 22.6941 796.188 23.122V24.0987C796.188 24.6717 796.288 25.1591 796.489 25.561C796.694 25.9628 796.978 26.2698 797.343 26.4819C797.708 26.6903 798.134 26.7944 798.621 26.7944C798.938 26.7944 799.226 26.7498 799.486 26.6605C799.747 26.5675 799.972 26.4298 800.162 26.2475C800.351 26.0652 800.497 25.8401 800.597 25.5722L802.176 25.8568C802.05 26.3219 801.823 26.7293 801.496 27.0791C801.172 27.4251 800.764 27.6949 800.273 27.8884C799.786 28.0781 799.23 28.173 798.604 28.173ZM807.09 28.173C806.246 28.173 805.518 27.9926 804.908 27.6316C804.301 27.267 803.833 26.7554 803.501 26.0968C803.174 25.4345 803.01 24.6587 803.01 23.7694C803.01 22.8913 803.174 22.1174 803.501 21.4476C803.833 20.7779 804.294 20.2551 804.886 19.8793C805.481 19.5035 806.177 19.3156 806.973 19.3156C807.457 19.3156 807.926 19.3956 808.379 19.5556C808.833 19.7156 809.241 19.9667 809.602 20.309C809.963 20.6513 810.247 21.096 810.456 21.643C810.664 22.1862 810.768 22.8466 810.768 23.6243V24.2159H803.954V22.9657H809.133C809.133 22.5266 809.044 22.1378 808.865 21.7992C808.686 21.4569 808.435 21.1871 808.112 20.9899C807.792 20.7927 807.416 20.6941 806.984 20.6941C806.515 20.6941 806.106 20.8095 805.756 21.0402C805.41 21.2671 805.142 21.5648 804.953 21.9332C804.767 22.2978 804.674 22.6941 804.674 23.122V24.0987C804.674 24.6717 804.774 25.1591 804.975 25.561C805.18 25.9628 805.464 26.2698 805.829 26.4819C806.193 26.6903 806.62 26.7944 807.107 26.7944C807.423 26.7944 807.712 26.7498 807.972 26.6605C808.233 26.5675 808.458 26.4298 808.647 26.2475C808.837 26.0652 808.982 25.8401 809.083 25.5722L810.662 25.8568C810.536 26.3219 810.309 26.7293 809.981 27.0791C809.658 27.4251 809.25 27.6949 808.759 27.8884C808.272 28.0781 807.715 28.173 807.09 28.173ZM814.052 26.4372L813.969 27.0456C813.913 27.4921 813.818 27.9572 813.684 28.4409C813.554 28.9283 813.418 29.3804 813.276 29.7972C813.139 30.2139 813.025 30.5451 812.936 30.7906H811.753C811.801 30.5599 811.868 30.2474 811.954 29.853C812.039 29.4623 812.123 29.0251 812.205 28.5414C812.287 28.0577 812.348 27.5647 812.389 27.0623L812.445 26.4372H814.052ZM822.909 19.4272V20.7667H818.226V19.4272H822.909ZM819.482 17.3733H821.15V25.4829C821.15 25.8066 821.199 26.0503 821.296 26.214C821.392 26.374 821.517 26.4838 821.67 26.5433C821.826 26.5991 821.995 26.627 822.177 26.627C822.311 26.627 822.429 26.6177 822.529 26.5991C822.63 26.5805 822.708 26.5656 822.763 26.5545L823.065 27.933C822.968 27.9702 822.83 28.0074 822.652 28.0447C822.473 28.0856 822.25 28.1079 821.982 28.1116C821.543 28.1191 821.134 28.0409 820.754 27.8772C820.375 27.7135 820.068 27.4605 819.833 27.1182C819.599 26.7758 819.482 26.3461 819.482 25.8289V17.3733ZM827.535 28.173C826.731 28.173 826.03 27.9888 825.431 27.6205C824.832 27.2521 824.367 26.7368 824.035 26.0745C823.704 25.4122 823.539 24.6382 823.539 23.7527C823.539 22.8634 823.704 22.0857 824.035 21.4197C824.367 20.7537 824.832 20.2365 825.431 19.8681C826.03 19.4997 826.731 19.3156 827.535 19.3156C828.339 19.3156 829.04 19.4997 829.639 19.8681C830.238 20.2365 830.703 20.7537 831.034 21.4197C831.365 22.0857 831.531 22.8634 831.531 23.7527C831.531 24.6382 831.365 25.4122 831.034 26.0745C830.703 26.7368 830.238 27.2521 829.639 27.6205C829.04 27.9888 828.339 28.173 827.535 28.173ZM827.54 26.7721C828.061 26.7721 828.493 26.6345 828.835 26.3591C829.178 26.0838 829.431 25.7173 829.594 25.2596C829.762 24.8019 829.846 24.2978 829.846 23.7471C829.846 23.2001 829.762 22.6978 829.594 22.2401C829.431 21.7788 829.178 21.4085 828.835 21.1295C828.493 20.8504 828.061 20.7109 827.54 20.7109C827.016 20.7109 826.58 20.8504 826.234 21.1295C825.892 21.4085 825.637 21.7788 825.47 22.2401C825.306 22.6978 825.224 23.2001 825.224 23.7471C825.224 24.2978 825.306 24.8019 825.47 25.2596C825.637 25.7173 825.892 26.0838 826.234 26.3591C826.58 26.6345 827.016 26.7721 827.54 26.7721ZM836.266 28.173C835.462 28.173 834.761 27.9888 834.162 27.6205C833.563 27.2521 833.098 26.7368 832.767 26.0745C832.436 25.4122 832.27 24.6382 832.27 23.7527C832.27 22.8634 832.436 22.0857 832.767 21.4197C833.098 20.7537 833.563 20.2365 834.162 19.8681C834.761 19.4997 835.462 19.3156 836.266 19.3156C837.07 19.3156 837.771 19.4997 838.37 19.8681C838.969 20.2365 839.434 20.7537 839.766 21.4197C840.097 22.0857 840.262 22.8634 840.262 23.7527C840.262 24.6382 840.097 25.4122 839.766 26.0745C839.434 26.7368 838.969 27.2521 838.37 27.6205C837.771 27.9888 837.07 28.173 836.266 28.173ZM836.272 26.7721C836.793 26.7721 837.224 26.6345 837.567 26.3591C837.909 26.0838 838.162 25.7173 838.326 25.2596C838.493 24.8019 838.577 24.2978 838.577 23.7471C838.577 23.2001 838.493 22.6978 838.326 22.2401C838.162 21.7788 837.909 21.4085 837.567 21.1295C837.224 20.8504 836.793 20.7109 836.272 20.7109C835.747 20.7109 835.312 20.8504 834.966 21.1295C834.623 21.4085 834.369 21.7788 834.201 22.2401C834.037 22.6978 833.956 23.2001 833.956 23.7471C833.956 24.2978 834.037 24.8019 834.201 25.2596C834.369 25.7173 834.623 26.0838 834.966 26.3591C835.312 26.6345 835.747 26.7721 836.272 26.7721ZM844.807 28V19.4272H846.409V20.8225H846.515C846.694 20.35 846.986 19.9816 847.391 19.7174C847.797 19.4495 848.282 19.3156 848.848 19.3156C849.421 19.3156 849.901 19.4495 850.288 19.7174C850.679 19.9853 850.967 20.3537 851.153 20.8225H851.242C851.447 20.3648 851.773 20.0002 852.219 19.7286C852.666 19.4532 853.198 19.3156 853.815 19.3156C854.593 19.3156 855.227 19.5593 855.719 20.0467C856.213 20.5341 856.461 21.269 856.461 22.2513V28H854.792V22.4076C854.792 21.8271 854.634 21.4067 854.318 21.1462C854.001 20.8858 853.624 20.7555 853.185 20.7555C852.641 20.7555 852.219 20.923 851.918 21.2578C851.616 21.589 851.466 22.015 851.466 22.536V28H849.802V22.3015C849.802 21.8364 849.657 21.4625 849.367 21.1797C849.077 20.8969 848.699 20.7555 848.234 20.7555C847.918 20.7555 847.626 20.8392 847.358 21.0067C847.094 21.1704 846.88 21.3992 846.716 21.6932C846.556 21.9871 846.476 22.3276 846.476 22.7146V28H844.807ZM860.454 28.1898C859.91 28.1898 859.419 28.0893 858.98 27.8884C858.541 27.6837 858.193 27.3879 857.936 27.001C857.683 26.614 857.557 26.1396 857.557 25.5777C857.557 25.094 857.65 24.6959 857.836 24.3833C858.022 24.0708 858.273 23.8234 858.589 23.641C858.906 23.4587 859.259 23.321 859.65 23.228C860.041 23.135 860.439 23.0643 860.844 23.0159C861.358 22.9564 861.775 22.908 862.095 22.8708C862.415 22.8299 862.647 22.7648 862.792 22.6755C862.937 22.5862 863.01 22.4411 863.01 22.2401V22.2011C863.01 21.7136 862.872 21.336 862.597 21.0681C862.325 20.8002 861.92 20.6662 861.38 20.6662C860.818 20.6662 860.375 20.7909 860.052 21.0402C859.732 21.2858 859.51 21.5592 859.388 21.8606L857.819 21.5034C858.005 20.9825 858.277 20.562 858.634 20.2421C858.995 19.9183 859.41 19.6839 859.879 19.5388C860.348 19.39 860.841 19.3156 861.358 19.3156C861.7 19.3156 862.063 19.3565 862.446 19.4384C862.833 19.5165 863.194 19.6616 863.529 19.8737C863.867 20.0858 864.145 20.389 864.361 20.7834C864.576 21.1741 864.684 21.682 864.684 22.3071V28H863.054V26.8279H862.988C862.88 27.0437 862.718 27.2558 862.502 27.4642C862.286 27.6726 862.009 27.8456 861.67 27.9833C861.332 28.1209 860.926 28.1898 860.454 28.1898ZM860.816 26.8503C861.278 26.8503 861.672 26.7591 862 26.5768C862.331 26.3945 862.582 26.1563 862.753 25.8624C862.928 25.5647 863.015 25.2466 863.015 24.908V23.8029C862.956 23.8624 862.841 23.9182 862.669 23.9703C862.502 24.0187 862.31 24.0615 862.095 24.0987C861.879 24.1322 861.668 24.1638 861.464 24.1936C861.259 24.2196 861.088 24.242 860.95 24.2606C860.627 24.3015 860.331 24.3703 860.063 24.4671C859.799 24.5638 859.587 24.7033 859.427 24.8857C859.27 25.0643 859.192 25.3024 859.192 25.6001C859.192 26.0131 859.345 26.3256 859.65 26.5377C859.955 26.7461 860.344 26.8503 860.816 26.8503ZM867.837 22.9099V28H866.168V19.4272H867.77V20.8225H867.876C868.073 20.3686 868.382 20.0039 868.803 19.7286C869.227 19.4532 869.761 19.3156 870.404 19.3156C870.989 19.3156 871.5 19.4384 871.939 19.6839C872.378 19.9258 872.719 20.2867 872.961 20.7667C873.203 21.2467 873.323 21.8402 873.323 22.5471V28H871.655V22.748C871.655 22.1267 871.493 21.6411 871.169 21.2913C870.845 20.9379 870.401 20.7611 869.835 20.7611C869.448 20.7611 869.104 20.8448 868.803 21.0123C868.505 21.1797 868.269 21.4253 868.094 21.749C867.923 22.069 867.837 22.456 867.837 22.9099ZM875.571 31.2148C875.321 31.2148 875.094 31.1943 874.89 31.1534C874.685 31.1162 874.533 31.0753 874.432 31.0306L874.834 29.6632C875.139 29.7451 875.411 29.7804 875.649 29.7693C875.887 29.7581 876.097 29.6688 876.28 29.5014C876.466 29.3339 876.629 29.0604 876.771 28.6809L876.977 28.1116L873.841 19.4272H875.627L877.798 26.08H877.887L880.058 19.4272H881.85L878.317 29.1442C878.153 29.5907 877.945 29.9683 877.692 30.2772C877.439 30.5897 877.137 30.8241 876.787 30.9804C876.438 31.1367 876.032 31.2148 875.571 31.2148ZM889.711 28.173C888.907 28.173 888.206 27.9888 887.607 27.6205C887.008 27.2521 886.543 26.7368 886.212 26.0745C885.88 25.4122 885.715 24.6382 885.715 23.7527C885.715 22.8634 885.88 22.0857 886.212 21.4197C886.543 20.7537 887.008 20.2365 887.607 19.8681C888.206 19.4997 888.907 19.3156 889.711 19.3156C890.515 19.3156 891.216 19.4997 891.815 19.8681C892.414 20.2365 892.879 20.7537 893.211 21.4197C893.542 22.0857 893.707 22.8634 893.707 23.7527C893.707 24.6382 893.542 25.4122 893.211 26.0745C892.879 26.7368 892.414 27.2521 891.815 27.6205C891.216 27.9888 890.515 28.173 889.711 28.173ZM889.717 26.7721C890.238 26.7721 890.669 26.6345 891.012 26.3591C891.354 26.0838 891.607 25.7173 891.771 25.2596C891.938 24.8019 892.022 24.2978 892.022 23.7471C892.022 23.2001 891.938 22.6978 891.771 22.2401C891.607 21.7788 891.354 21.4085 891.012 21.1295C890.669 20.8504 890.238 20.7109 889.717 20.7109C889.192 20.7109 888.757 20.8504 888.411 21.1295C888.068 21.4085 887.813 21.7788 887.646 22.2401C887.482 22.6978 887.4 23.2001 887.4 23.7471C887.4 24.2978 887.482 24.8019 887.646 25.2596C887.813 25.7173 888.068 26.0838 888.411 26.3591C888.757 26.6345 889.192 26.7721 889.717 26.7721ZM894.831 31.2148V19.4272H896.461V20.8169H896.601C896.697 20.6383 896.837 20.4318 897.019 20.1974C897.201 19.963 897.454 19.7583 897.778 19.5835C898.102 19.4049 898.53 19.3156 899.062 19.3156C899.754 19.3156 900.372 19.4904 900.915 19.8402C901.458 20.19 901.884 20.6941 902.193 21.3527C902.506 22.0113 902.662 22.8039 902.662 23.7303C902.662 24.6568 902.507 25.4512 902.199 26.1135C901.89 26.7721 901.466 27.28 900.926 27.6372C900.387 27.9907 899.771 28.1674 899.079 28.1674C898.558 28.1674 898.132 28.08 897.801 27.9051C897.473 27.7302 897.216 27.5256 897.03 27.2912C896.844 27.0568 896.701 26.8484 896.601 26.6661H896.5V31.2148H894.831ZM896.467 23.7136C896.467 24.3164 896.554 24.8447 896.729 25.2987C896.904 25.7526 897.157 26.108 897.488 26.3647C897.819 26.6177 898.225 26.7442 898.705 26.7442C899.203 26.7442 899.62 26.6121 899.955 26.3479C900.29 26.08 900.543 25.7173 900.714 25.2596C900.889 24.8019 900.976 24.2866 900.976 23.7136C900.976 23.148 900.891 22.6401 900.72 22.1899C900.552 21.7397 900.299 21.3844 899.96 21.1239C899.626 20.8634 899.207 20.7332 898.705 20.7332C898.221 20.7332 897.812 20.8579 897.477 21.1072C897.146 21.3564 896.895 21.7043 896.723 22.1508C896.552 22.5973 896.467 23.1183 896.467 23.7136ZM907.488 28.173C906.643 28.173 905.916 27.9926 905.305 27.6316C904.699 27.267 904.23 26.7554 903.899 26.0968C903.571 25.4345 903.408 24.6587 903.408 23.7694C903.408 22.8913 903.571 22.1174 903.899 21.4476C904.23 20.7779 904.691 20.2551 905.283 19.8793C905.878 19.5035 906.574 19.3156 907.37 19.3156C907.854 19.3156 908.323 19.3956 908.777 19.5556C909.231 19.7156 909.638 19.9667 909.999 20.309C910.36 20.6513 910.645 21.096 910.853 21.643C911.062 22.1862 911.166 22.8466 911.166 23.6243V24.2159H904.351V22.9657H909.53C909.53 22.5266 909.441 22.1378 909.262 21.7992C909.084 21.4569 908.833 21.1871 908.509 20.9899C908.189 20.7927 907.813 20.6941 907.382 20.6941C906.913 20.6941 906.503 20.8095 906.154 21.0402C905.808 21.2671 905.54 21.5648 905.35 21.9332C905.164 22.2978 905.071 22.6941 905.071 23.122V24.0987C905.071 24.6717 905.171 25.1591 905.372 25.561C905.577 25.9628 905.862 26.2698 906.226 26.4819C906.591 26.6903 907.017 26.7944 907.504 26.7944C907.821 26.7944 908.109 26.7498 908.369 26.6605C908.63 26.5675 908.855 26.4298 909.045 26.2475C909.235 26.0652 909.38 25.8401 909.48 25.5722L911.06 25.8568C910.933 26.3219 910.706 26.7293 910.379 27.0791C910.055 27.4251 909.648 27.6949 909.156 27.8884C908.669 28.0781 908.113 28.173 907.488 28.173ZM913.947 22.9099V28H912.279V19.4272H913.88V20.8225H913.986C914.184 20.3686 914.492 20.0039 914.913 19.7286C915.337 19.4532 915.871 19.3156 916.515 19.3156C917.099 19.3156 917.611 19.4384 918.05 19.6839C918.489 19.9258 918.829 20.2867 919.071 20.7667C919.313 21.2467 919.434 21.8402 919.434 22.5471V28H917.765V22.748C917.765 22.1267 917.603 21.6411 917.279 21.2913C916.956 20.9379 916.511 20.7611 915.945 20.7611C915.558 20.7611 915.214 20.8448 914.913 21.0123C914.615 21.1797 914.379 21.4253 914.204 21.749C914.033 22.069 913.947 22.456 913.947 22.9099ZM928.356 19.4272V20.7667H923.673V19.4272H928.356ZM924.929 17.3733H926.598V25.4829C926.598 25.8066 926.646 26.0503 926.743 26.214C926.839 26.374 926.964 26.4838 927.117 26.5433C927.273 26.5991 927.442 26.627 927.625 26.627C927.758 26.627 927.876 26.6177 927.976 26.5991C928.077 26.5805 928.155 26.5656 928.211 26.5545L928.512 27.933C928.415 27.9702 928.278 28.0074 928.099 28.0447C927.92 28.0856 927.697 28.1079 927.429 28.1116C926.99 28.1191 926.581 28.0409 926.201 27.8772C925.822 27.7135 925.515 27.4605 925.28 27.1182C925.046 26.7758 924.929 26.3461 924.929 25.8289V17.3733ZM931.958 28.1898C931.415 28.1898 930.923 28.0893 930.484 27.8884C930.045 27.6837 929.697 27.3879 929.441 27.001C929.188 26.614 929.061 26.1396 929.061 25.5777C929.061 25.094 929.154 24.6959 929.34 24.3833C929.526 24.0708 929.777 23.8234 930.094 23.641C930.41 23.4587 930.763 23.321 931.154 23.228C931.545 23.135 931.943 23.0643 932.348 23.0159C932.862 22.9564 933.279 22.908 933.599 22.8708C933.919 22.8299 934.151 22.7648 934.296 22.6755C934.441 22.5862 934.514 22.4411 934.514 22.2401V22.2011C934.514 21.7136 934.376 21.336 934.101 21.0681C933.829 20.8002 933.424 20.6662 932.884 20.6662C932.322 20.6662 931.88 20.7909 931.556 21.0402C931.236 21.2858 931.015 21.5592 930.892 21.8606L929.323 21.5034C929.509 20.9825 929.781 20.562 930.138 20.2421C930.499 19.9183 930.914 19.6839 931.383 19.5388C931.852 19.39 932.345 19.3156 932.862 19.3156C933.204 19.3156 933.567 19.3565 933.95 19.4384C934.337 19.5165 934.698 19.6616 935.033 19.8737C935.372 20.0858 935.649 20.389 935.865 20.7834C936.08 21.1741 936.188 21.682 936.188 22.3071V28H934.559V26.8279H934.492C934.384 27.0437 934.222 27.2558 934.006 27.4642C933.79 27.6726 933.513 27.8456 933.174 27.9833C932.836 28.1209 932.43 28.1898 931.958 28.1898ZM932.321 26.8503C932.782 26.8503 933.176 26.7591 933.504 26.5768C933.835 26.3945 934.086 26.1563 934.257 25.8624C934.432 25.5647 934.52 25.2466 934.52 24.908V23.8029C934.46 23.8624 934.345 23.9182 934.174 23.9703C934.006 24.0187 933.814 24.0615 933.599 24.0987C933.383 24.1322 933.173 24.1638 932.968 24.1936C932.763 24.2196 932.592 24.242 932.455 24.2606C932.131 24.3015 931.835 24.3703 931.567 24.4671C931.303 24.5638 931.091 24.7033 930.931 24.8857C930.775 25.0643 930.696 25.3024 930.696 25.6001C930.696 26.0131 930.849 26.3256 931.154 26.5377C931.459 26.7461 931.848 26.8503 932.321 26.8503ZM937.806 28V16.5696H939.475V20.8169H939.576C939.672 20.6383 939.812 20.4318 939.994 20.1974C940.177 19.963 940.43 19.7583 940.753 19.5835C941.077 19.4049 941.505 19.3156 942.037 19.3156C942.729 19.3156 943.347 19.4904 943.89 19.8402C944.433 20.19 944.859 20.6941 945.168 21.3527C945.481 22.0113 945.637 22.8039 945.637 23.7303C945.637 24.6568 945.482 25.4512 945.174 26.1135C944.865 26.7721 944.441 27.28 943.901 27.6372C943.362 27.9907 942.746 28.1674 942.054 28.1674C941.533 28.1674 941.107 28.08 940.776 27.9051C940.448 27.7302 940.191 27.5256 940.005 27.2912C939.819 27.0568 939.676 26.8484 939.576 26.6661H939.436V28H937.806ZM939.442 23.7136C939.442 24.3164 939.529 24.8447 939.704 25.2987C939.879 25.7526 940.132 26.108 940.463 26.3647C940.794 26.6177 941.2 26.7442 941.68 26.7442C942.178 26.7442 942.595 26.6121 942.93 26.3479C943.265 26.08 943.518 25.7173 943.689 25.2596C943.864 24.8019 943.951 24.2866 943.951 23.7136C943.951 23.148 943.866 22.6401 943.695 22.1899C943.527 21.7397 943.274 21.3844 942.936 21.1239C942.601 20.8634 942.182 20.7332 941.68 20.7332C941.196 20.7332 940.787 20.8579 940.452 21.1072C940.121 21.3564 939.87 21.7043 939.698 22.1508C939.527 22.5973 939.442 23.1183 939.442 23.7136ZM953.196 21.5202L951.684 21.7881C951.62 21.5946 951.52 21.4104 951.382 21.2355C951.248 21.0606 951.066 20.9174 950.835 20.8058C950.605 20.6941 950.316 20.6383 949.97 20.6383C949.498 20.6383 949.103 20.7444 948.787 20.9565C948.471 21.1648 948.312 21.4346 948.312 21.7657C948.312 22.0522 948.419 22.2829 948.631 22.4578C948.843 22.6327 949.185 22.7759 949.658 22.8876L951.019 23.2001C951.808 23.3824 952.396 23.6634 952.783 24.0429C953.17 24.4224 953.364 24.9154 953.364 25.5219C953.364 26.0354 953.215 26.4931 952.917 26.8949C952.623 27.293 952.212 27.6056 951.684 27.8326C951.159 28.0595 950.551 28.173 949.859 28.173C948.899 28.173 948.115 27.9684 947.509 27.5591C946.902 27.1461 946.53 26.56 946.393 25.801L948.006 25.5554C948.106 25.9759 948.312 26.294 948.625 26.5098C948.938 26.7219 949.345 26.8279 949.847 26.8279C950.394 26.8279 950.832 26.7145 951.159 26.4875C951.486 26.2568 951.65 25.9759 951.65 25.6447C951.65 25.3768 951.55 25.1517 951.349 24.9694C951.151 24.7871 950.848 24.6494 950.439 24.5564L948.988 24.2382C948.188 24.0559 947.596 23.7657 947.213 23.3676C946.833 22.9694 946.644 22.4653 946.644 21.855C946.644 21.349 946.785 20.9062 947.068 20.5267C947.351 20.1472 947.741 19.8514 948.24 19.6393C948.739 19.4235 949.31 19.3156 949.953 19.3156C950.88 19.3156 951.609 19.5165 952.141 19.9183C952.673 20.3165 953.025 20.8504 953.196 21.5202ZM956.631 26.4372L956.547 27.0456C956.491 27.4921 956.396 27.9572 956.262 28.4409C956.132 28.9283 955.996 29.3804 955.855 29.7972C955.717 30.2139 955.604 30.5451 955.515 30.7906H954.331C954.38 30.5599 954.447 30.2474 954.532 29.853C954.618 29.4623 954.702 29.0251 954.783 28.5414C954.865 28.0577 954.927 27.5647 954.968 27.0623L955.023 26.4372H956.631ZM963.98 28.1898C963.437 28.1898 962.946 28.0893 962.507 27.8884C962.068 27.6837 961.72 27.3879 961.463 27.001C961.21 26.614 961.083 26.1396 961.083 25.5777C961.083 25.094 961.176 24.6959 961.363 24.3833C961.549 24.0708 961.8 23.8234 962.116 23.641C962.432 23.4587 962.786 23.321 963.176 23.228C963.567 23.135 963.965 23.0643 964.371 23.0159C964.884 22.9564 965.301 22.908 965.621 22.8708C965.941 22.8299 966.174 22.7648 966.319 22.6755C966.464 22.5862 966.536 22.4411 966.536 22.2401V22.2011C966.536 21.7136 966.399 21.336 966.123 21.0681C965.852 20.8002 965.446 20.6662 964.907 20.6662C964.345 20.6662 963.902 20.7909 963.578 21.0402C963.258 21.2858 963.037 21.5592 962.914 21.8606L961.346 21.5034C961.532 20.9825 961.803 20.562 962.161 20.2421C962.522 19.9183 962.936 19.6839 963.405 19.5388C963.874 19.39 964.367 19.3156 964.884 19.3156C965.227 19.3156 965.589 19.3565 965.973 19.4384C966.36 19.5165 966.721 19.6616 967.055 19.8737C967.394 20.0858 967.671 20.389 967.887 20.7834C968.103 21.1741 968.211 21.682 968.211 22.3071V28H966.581V26.8279H966.514C966.406 27.0437 966.244 27.2558 966.028 27.4642C965.813 27.6726 965.535 27.8456 965.197 27.9833C964.858 28.1209 964.453 28.1898 963.98 28.1898ZM964.343 26.8503C964.804 26.8503 965.199 26.7591 965.526 26.5768C965.857 26.3945 966.108 26.1563 966.28 25.8624C966.455 25.5647 966.542 25.2466 966.542 24.908V23.8029C966.482 23.8624 966.367 23.9182 966.196 23.9703C966.028 24.0187 965.837 24.0615 965.621 24.0987C965.405 24.1322 965.195 24.1638 964.99 24.1936C964.786 24.2196 964.615 24.242 964.477 24.2606C964.153 24.3015 963.857 24.3703 963.589 24.4671C963.325 24.5638 963.113 24.7033 962.953 24.8857C962.797 25.0643 962.719 25.3024 962.719 25.6001C962.719 26.0131 962.871 26.3256 963.176 26.5377C963.482 26.7461 963.87 26.8503 964.343 26.8503ZM971.364 22.9099V28H969.695V19.4272H971.297V20.8225H971.403C971.6 20.3686 971.909 20.0039 972.329 19.7286C972.753 19.4532 973.287 19.3156 973.931 19.3156C974.515 19.3156 975.027 19.4384 975.466 19.6839C975.905 19.9258 976.245 20.2867 976.487 20.7667C976.729 21.2467 976.85 21.8402 976.85 22.5471V28H975.181V22.748C975.181 22.1267 975.019 21.6411 974.696 21.2913C974.372 20.9379 973.927 20.7611 973.362 20.7611C972.975 20.7611 972.631 20.8448 972.329 21.0123C972.031 21.1797 971.795 21.4253 971.62 21.749C971.449 22.069 971.364 22.456 971.364 22.9099ZM981.559 28.1674C980.866 28.1674 980.249 27.9907 979.706 27.6372C979.166 27.28 978.742 26.7721 978.433 26.1135C978.128 25.4512 977.975 24.6568 977.975 23.7303C977.975 22.8039 978.13 22.0113 978.439 21.3527C978.751 20.6941 979.179 20.19 979.722 19.8402C980.266 19.4904 980.881 19.3156 981.57 19.3156C982.102 19.3156 982.53 19.4049 982.853 19.5835C983.181 19.7583 983.434 19.963 983.612 20.1974C983.795 20.4318 983.936 20.6383 984.037 20.8169H984.137V16.5696H985.806V28H984.176V26.6661H984.037C983.936 26.8484 983.791 27.0568 983.601 27.2912C983.415 27.5256 983.159 27.7302 982.831 27.9051C982.504 28.08 982.079 28.1674 981.559 28.1674ZM981.927 26.7442C982.407 26.7442 982.812 26.6177 983.144 26.3647C983.479 26.108 983.732 25.7526 983.903 25.2987C984.078 24.8447 984.165 24.3164 984.165 23.7136C984.165 23.1183 984.079 22.5973 983.908 22.1508C983.737 21.7043 983.486 21.3564 983.155 21.1072C982.824 20.8579 982.414 20.7332 981.927 20.7332C981.425 20.7332 981.006 20.8634 980.671 21.1239C980.336 21.3844 980.083 21.7397 979.912 22.1899C979.745 22.6401 979.661 23.148 979.661 23.7136C979.661 24.2866 979.747 24.8019 979.918 25.2596C980.089 25.7173 980.342 26.08 980.677 26.3479C981.015 26.6121 981.432 26.7442 981.927 26.7442ZM1009.07 28H1007.24L1011.36 16.5696H1013.35L1017.46 28H1015.63L1012.4 18.6458H1012.31L1009.07 28ZM1009.38 23.5238H1015.32V24.975H1009.38V23.5238ZM1018.24 28V19.4272H1019.85V20.789H1019.94C1020.1 20.3276 1020.37 19.9649 1020.77 19.7007C1021.17 19.4328 1021.62 19.2988 1022.12 19.2988C1022.22 19.2988 1022.35 19.3025 1022.49 19.31C1022.63 19.3174 1022.75 19.3267 1022.83 19.3379V20.9341C1022.76 20.9155 1022.64 20.8951 1022.47 20.8727C1022.3 20.8467 1022.13 20.8337 1021.96 20.8337C1021.56 20.8337 1021.21 20.9174 1020.9 21.0848C1020.6 21.2485 1020.35 21.4774 1020.18 21.7713C1020 22.0615 1019.91 22.3927 1019.91 22.7648V28H1018.24ZM1026.84 28.173C1026.01 28.173 1025.29 27.9851 1024.69 27.6093C1024.1 27.2298 1023.64 26.707 1023.32 26.041C1023 25.3749 1022.84 24.6122 1022.84 23.7527C1022.84 22.882 1023 22.1136 1023.33 21.4476C1023.66 20.7779 1024.12 20.2551 1024.72 19.8793C1025.31 19.5035 1026.01 19.3156 1026.82 19.3156C1027.47 19.3156 1028.05 19.4365 1028.56 19.6783C1029.07 19.9165 1029.48 20.2514 1029.8 20.683C1030.11 21.1146 1030.3 21.6188 1030.36 22.1955H1028.73C1028.65 21.7936 1028.44 21.4476 1028.12 21.1574C1027.8 20.8672 1027.38 20.722 1026.85 20.722C1026.38 20.722 1025.98 20.8448 1025.63 21.0904C1025.28 21.3323 1025.01 21.6783 1024.82 22.1285C1024.62 22.575 1024.53 23.1034 1024.53 23.7136C1024.53 24.3387 1024.62 24.8782 1024.81 25.3322C1025 25.7861 1025.27 26.1377 1025.61 26.387C1025.96 26.6363 1026.38 26.761 1026.85 26.761C1027.16 26.761 1027.45 26.7033 1027.71 26.5879C1027.97 26.4689 1028.19 26.2996 1028.36 26.08C1028.54 25.8605 1028.66 25.5963 1028.73 25.2875H1030.36C1030.3 25.8419 1030.12 26.3368 1029.82 26.7721C1029.52 27.2075 1029.11 27.5498 1028.61 27.7991C1028.1 28.0484 1027.51 28.173 1026.84 28.173ZM1033.07 22.9099V28H1031.4V16.5696H1033.05V20.8225H1033.16C1033.36 20.3611 1033.67 19.9946 1034.08 19.723C1034.49 19.4514 1035.03 19.3156 1035.7 19.3156C1036.28 19.3156 1036.8 19.4365 1037.24 19.6783C1037.68 19.9202 1038.02 20.2811 1038.26 20.7611C1038.51 21.2374 1038.63 21.8327 1038.63 22.5471V28H1036.96V22.748C1036.96 22.1192 1036.8 21.6318 1036.48 21.2858C1036.15 20.936 1035.7 20.7611 1035.13 20.7611C1034.73 20.7611 1034.38 20.8448 1034.07 21.0123C1033.76 21.1797 1033.51 21.4253 1033.34 21.749C1033.16 22.069 1033.07 22.456 1033.07 22.9099ZM1044.03 23.2559C1044.03 21.8569 1044.21 20.5695 1044.58 19.3937C1044.95 18.2179 1045.49 17.1333 1046.19 16.1398H1047.72C1047.45 16.5082 1047.19 16.9603 1046.95 17.4961C1046.71 18.0319 1046.51 18.6198 1046.33 19.2598C1046.15 19.896 1046.01 20.5565 1045.91 21.2411C1045.81 21.922 1045.76 22.5936 1045.76 23.2559C1045.76 24.1415 1045.84 25.0382 1046.02 25.9461C1046.19 26.854 1046.43 27.6968 1046.73 28.4744C1047.03 29.2521 1047.36 29.8865 1047.72 30.3776H1046.19C1045.49 29.3842 1044.95 28.2995 1044.58 27.1237C1044.21 25.948 1044.03 24.6587 1044.03 23.2559ZM1048.88 28V16.5696H1050.55V20.8169H1050.65C1050.74 20.6383 1050.88 20.4318 1051.06 20.1974C1051.25 19.963 1051.5 19.7583 1051.82 19.5835C1052.15 19.4049 1052.57 19.3156 1053.11 19.3156C1053.8 19.3156 1054.42 19.4904 1054.96 19.8402C1055.5 20.19 1055.93 20.6941 1056.24 21.3527C1056.55 22.0113 1056.71 22.8039 1056.71 23.7303C1056.71 24.6568 1056.55 25.4512 1056.24 26.1135C1055.93 26.7721 1055.51 27.28 1054.97 27.6372C1054.43 27.9907 1053.82 28.1674 1053.12 28.1674C1052.6 28.1674 1052.18 28.08 1051.85 27.9051C1051.52 27.7302 1051.26 27.5256 1051.08 27.2912C1050.89 27.0568 1050.75 26.8484 1050.65 26.6661H1050.51V28H1048.88ZM1050.51 23.7136C1050.51 24.3164 1050.6 24.8447 1050.77 25.2987C1050.95 25.7526 1051.2 26.108 1051.53 26.3647C1051.86 26.6177 1052.27 26.7442 1052.75 26.7442C1053.25 26.7442 1053.67 26.6121 1054 26.3479C1054.33 26.08 1054.59 25.7173 1054.76 25.2596C1054.93 24.8019 1055.02 24.2866 1055.02 23.7136C1055.02 23.148 1054.94 22.6401 1054.76 22.1899C1054.6 21.7397 1054.34 21.3844 1054.01 21.1239C1053.67 20.8634 1053.25 20.7332 1052.75 20.7332C1052.27 20.7332 1051.86 20.8579 1051.52 21.1072C1051.19 21.3564 1050.94 21.7043 1050.77 22.1508C1050.6 22.5973 1050.51 23.1183 1050.51 23.7136ZM1061.84 19.4272V20.7667H1057.16V19.4272H1061.84ZM1058.42 17.3733H1060.09V25.4829C1060.09 25.8066 1060.13 26.0503 1060.23 26.214C1060.33 26.374 1060.45 26.4838 1060.6 26.5433C1060.76 26.5991 1060.93 26.627 1061.11 26.627C1061.25 26.627 1061.36 26.6177 1061.46 26.5991C1061.56 26.5805 1061.64 26.5656 1061.7 26.5545L1062 27.933C1061.9 27.9702 1061.77 28.0074 1061.59 28.0447C1061.41 28.0856 1061.19 28.1079 1060.92 28.1116C1060.48 28.1191 1060.07 28.0409 1059.69 27.8772C1059.31 27.7135 1059 27.4605 1058.77 27.1182C1058.53 26.7758 1058.42 26.3461 1058.42 25.8289V17.3733ZM1064.81 28L1062.29 19.4272H1064.01L1065.69 25.7228H1065.78L1067.46 19.4272H1069.19L1070.86 25.6949H1070.94L1072.61 19.4272H1074.34L1071.82 28H1070.12L1068.38 21.8104H1068.25L1066.51 28H1064.81ZM1078.39 23.2559C1078.39 24.6587 1078.21 25.948 1077.84 27.1237C1077.47 28.2995 1076.93 29.3842 1076.23 30.3776H1074.7C1074.97 30.0093 1075.23 29.5572 1075.47 29.0214C1075.7 28.4856 1075.91 27.8995 1076.09 27.2633C1076.27 26.6233 1076.41 25.961 1076.51 25.2763C1076.61 24.5917 1076.66 23.9182 1076.66 23.2559C1076.66 22.3741 1076.57 21.4792 1076.4 20.5713C1076.22 19.6635 1075.99 18.8207 1075.69 18.043C1075.39 17.2654 1075.06 16.631 1074.7 16.1398H1076.23C1076.93 17.1333 1077.47 18.2179 1077.84 19.3937C1078.21 20.5695 1078.39 21.8569 1078.39 23.2559ZM937.008 47V35.5696H938.325V39.789H938.437C938.533 39.6402 938.667 39.4504 938.839 39.2197C939.013 38.9853 939.263 38.777 939.586 38.5946C939.914 38.4086 940.357 38.3156 940.915 38.3156C941.637 38.3156 942.273 38.496 942.824 38.8569C943.374 39.2179 943.804 39.7295 944.113 40.3918C944.422 41.0541 944.576 41.8355 944.576 42.7359C944.576 43.6438 944.422 44.4308 944.113 45.0968C943.804 45.7591 943.376 46.2726 942.829 46.6372C942.282 46.9981 941.652 47.1786 940.937 47.1786C940.386 47.1786 939.946 47.0874 939.614 46.9051C939.283 46.7191 939.028 46.5088 938.85 46.2744C938.671 46.0363 938.533 45.8391 938.437 45.6828H938.28V47H937.008ZM938.303 42.7136C938.303 43.361 938.398 43.9322 938.587 44.427C938.777 44.9182 939.054 45.3033 939.419 45.5824C939.784 45.8577 940.23 45.9954 940.759 45.9954C941.309 45.9954 941.769 45.8503 942.137 45.56C942.509 45.2661 942.788 44.8717 942.974 44.3768C943.164 43.8782 943.259 43.3238 943.259 42.7136C943.259 42.1108 943.166 41.5676 942.98 41.0839C942.798 40.5964 942.52 40.2113 942.148 39.9285C941.78 39.642 941.317 39.4988 940.759 39.4988C940.223 39.4988 939.772 39.6346 939.408 39.9062C939.043 40.1741 938.768 40.5499 938.582 41.0336C938.396 41.5136 938.303 42.0736 938.303 42.7136ZM946.394 50.2148C946.17 50.2148 945.971 50.1962 945.796 50.159C945.622 50.1255 945.501 50.092 945.434 50.0585L945.768 48.8976C946.088 48.9795 946.371 49.0093 946.617 48.9869C946.862 48.9646 947.08 48.8548 947.27 48.6576C947.463 48.4641 947.64 48.1497 947.8 47.7144L948.046 47.0447L944.875 38.4272H946.304L948.671 45.2586H948.76L951.126 38.4272H952.555L948.916 48.2502C948.753 48.693 948.55 49.0595 948.308 49.3497C948.066 49.6437 947.785 49.8613 947.465 50.0027C947.149 50.1441 946.792 50.2148 946.394 50.2148Z" fill="#B1CFFB" fill-opacity="0.38"/>
<path d="M956.242 47V35.5696H960.752C961.615 35.5696 962.352 35.724 962.962 36.0328C963.576 36.3379 964.043 36.7714 964.363 37.3333C964.686 37.8914 964.848 38.5481 964.848 39.3034C964.848 40.0625 964.685 40.7155 964.357 41.2625C964.03 41.8057 963.555 42.2224 962.934 42.5127C962.316 42.8029 961.568 42.948 960.69 42.948H957.671V41.0057H960.3C960.761 41.0057 961.144 40.9425 961.449 40.816C961.754 40.6895 961.981 40.4997 962.13 40.2467C962.283 39.9937 962.359 39.6793 962.359 39.3034C962.359 38.9239 962.283 38.6039 962.13 38.3435C961.981 38.083 961.753 37.8858 961.444 37.7519C961.139 37.6142 960.754 37.5454 960.288 37.5454H958.659V47H956.242ZM962.415 41.7983L965.256 47H962.588L959.808 41.7983H962.415ZM971.27 43.3499V38.4272H973.648V47H971.365V45.4428H971.276C971.082 45.9451 970.761 46.3489 970.31 46.654C969.864 46.9591 969.319 47.1116 968.675 47.1116C968.102 47.1116 967.598 46.9814 967.163 46.7209C966.727 46.4605 966.387 46.0903 966.141 45.6103C965.899 45.1303 965.777 44.5554 965.773 43.8857V38.4272H968.15V43.4615C968.154 43.9675 968.29 44.3675 968.558 44.6615C968.826 44.9554 969.185 45.1024 969.635 45.1024C969.922 45.1024 970.189 45.0373 970.439 44.907C970.688 44.7731 970.889 44.5759 971.042 44.3154C971.198 44.055 971.274 43.7331 971.27 43.3499ZM977.97 47.1395C977.319 47.1395 976.729 46.9721 976.201 46.6372C975.676 46.2986 975.259 45.8019 974.951 45.147C974.646 44.4884 974.493 43.681 974.493 42.7248C974.493 41.7425 974.651 40.9257 974.967 40.2746C975.284 39.6197 975.704 39.1304 976.229 38.8067C976.757 38.4793 977.336 38.3156 977.964 38.3156C978.444 38.3156 978.844 38.3974 979.164 38.5611C979.488 38.7211 979.749 38.9221 979.946 39.1639C980.147 39.4021 980.299 39.6365 980.404 39.8672H980.476V35.5696H982.848V47H980.504V45.627H980.404C980.292 45.8651 980.134 46.1014 979.929 46.3358C979.728 46.5665 979.466 46.7581 979.142 46.9107C978.822 47.0633 978.431 47.1395 977.97 47.1395ZM978.724 45.2475C979.107 45.2475 979.431 45.1433 979.695 44.9349C979.963 44.7228 980.167 44.427 980.309 44.0475C980.454 43.668 980.526 43.2234 980.526 42.7136C980.526 42.2038 980.456 41.7611 980.314 41.3853C980.173 41.0095 979.968 40.7192 979.7 40.5146C979.432 40.3099 979.107 40.2076 978.724 40.2076C978.333 40.2076 978.004 40.3137 977.736 40.5257C977.468 40.7378 977.265 41.0318 977.127 41.4076C976.99 41.7834 976.921 42.2187 976.921 42.7136C976.921 43.2122 976.99 43.6531 977.127 44.0364C977.269 44.4159 977.471 44.7135 977.736 44.9294C978.004 45.1414 978.333 45.2475 978.724 45.2475ZM984.064 47V38.4272H986.369V39.923H986.459C986.615 39.3909 986.877 38.989 987.246 38.7174C987.614 38.4421 988.038 38.3044 988.518 38.3044C988.637 38.3044 988.766 38.3118 988.903 38.3267C989.041 38.3416 989.162 38.3621 989.266 38.3881V40.4978C989.154 40.4644 989 40.4346 988.803 40.4085C988.606 40.3825 988.425 40.3695 988.261 40.3695C987.912 40.3695 987.599 40.4457 987.324 40.5983C987.052 40.7471 986.836 40.9555 986.676 41.2234C986.52 41.4913 986.442 41.8001 986.442 42.1499V47H984.064ZM991.956 47.1619C991.409 47.1619 990.921 47.067 990.493 46.8772C990.065 46.6837 989.727 46.3991 989.477 46.0233C989.232 45.6438 989.109 45.1712 989.109 44.6056C989.109 44.1294 989.197 43.7294 989.371 43.4057C989.546 43.082 989.784 42.8215 990.086 42.6243C990.387 42.4271 990.73 42.2783 991.113 42.1778C991.5 42.0773 991.905 42.0066 992.33 41.9657C992.828 41.9136 993.23 41.8652 993.535 41.8206C993.84 41.7722 994.062 41.7015 994.199 41.6085C994.337 41.5155 994.406 41.3778 994.406 41.1955V41.162C994.406 40.8085 994.294 40.535 994.071 40.3416C993.851 40.1481 993.539 40.0513 993.133 40.0513C992.705 40.0513 992.365 40.1462 992.112 40.336C991.859 40.522 991.691 40.7564 991.61 41.0392L989.411 40.8606C989.522 40.3397 989.742 39.8895 990.069 39.51C990.397 39.1267 990.819 38.8328 991.336 38.6281C991.857 38.4198 992.46 38.3156 993.144 38.3156C993.621 38.3156 994.076 38.3714 994.512 38.483C994.951 38.5946 995.34 38.7676 995.678 39.0021C996.021 39.2365 996.29 39.5379 996.488 39.9062C996.685 40.2709 996.783 40.7081 996.783 41.2178V47H994.529V45.8112H994.462C994.324 46.0791 994.14 46.3154 993.909 46.52C993.678 46.7209 993.401 46.8791 993.077 46.9944C992.754 47.106 992.38 47.1619 991.956 47.1619ZM992.636 45.521C992.986 45.521 993.295 45.4521 993.563 45.3145C993.831 45.1731 994.041 44.9833 994.194 44.7452C994.346 44.507 994.422 44.2373 994.422 43.9359V43.0261C994.348 43.0745 994.246 43.1192 994.116 43.1601C993.989 43.1973 993.846 43.2327 993.686 43.2661C993.526 43.2959 993.366 43.3238 993.206 43.3499C993.046 43.3722 992.901 43.3926 992.77 43.4113C992.491 43.4522 992.248 43.5173 992.039 43.6066C991.831 43.6959 991.669 43.8168 991.554 43.9694C991.438 44.1182 991.381 44.3043 991.381 44.5275C991.381 44.8512 991.498 45.0987 991.732 45.2698C991.97 45.4372 992.272 45.521 992.636 45.521ZM1000.04 44.5331L1000.05 41.6811H1000.4L1003.14 38.4272H1005.87L1002.18 42.7359H1001.62L1000.04 44.5331ZM997.889 47V35.5696H1000.27V47H997.889ZM1003.25 47L1000.72 43.2661L1002.31 41.5862L1006.03 47H1003.25ZM1013.43 40.8718L1011.25 41.0057C1011.22 40.8197 1011.14 40.6523 1011.01 40.5034C1010.89 40.3509 1010.73 40.2299 1010.53 40.1406C1010.33 40.0476 1010.1 40.0011 1009.82 40.0011C1009.45 40.0011 1009.14 40.0792 1008.89 40.2355C1008.63 40.3881 1008.51 40.5927 1008.51 40.8495C1008.51 41.0541 1008.59 41.2271 1008.75 41.3685C1008.92 41.5099 1009.2 41.6234 1009.6 41.709L1011.15 42.0215C1011.98 42.1927 1012.6 42.468 1013.01 42.8475C1013.42 43.2271 1013.63 43.7257 1013.63 44.3433C1013.63 44.9052 1013.46 45.3982 1013.13 45.8224C1012.8 46.2465 1012.35 46.5777 1011.78 46.8158C1011.21 47.0502 1010.55 47.1674 1009.81 47.1674C1008.67 47.1674 1007.77 46.9312 1007.1 46.4586C1006.43 45.9824 1006.03 45.3349 1005.92 44.5163L1008.26 44.3936C1008.33 44.7396 1008.5 45.0038 1008.77 45.1861C1009.04 45.3647 1009.39 45.454 1009.81 45.454C1010.23 45.454 1010.57 45.374 1010.82 45.214C1011.08 45.0503 1011.21 44.8401 1011.21 44.5833C1011.21 44.3675 1011.11 44.1908 1010.94 44.0531C1010.76 43.9117 1010.48 43.8038 1010.11 43.7294L1008.63 43.4336C1007.79 43.2661 1007.17 42.9759 1006.76 42.5629C1006.35 42.1499 1006.15 41.6234 1006.15 40.9834C1006.15 40.4327 1006.3 39.9583 1006.59 39.5602C1006.9 39.1621 1007.32 38.8551 1007.86 38.6393C1008.41 38.4235 1009.05 38.3156 1009.78 38.3156C1010.86 38.3156 1011.72 38.5444 1012.34 39.0021C1012.96 39.4597 1013.33 40.083 1013.43 40.8718ZM1016.76 42.0438V47H1014.38V35.5696H1016.7V39.9397H1016.8C1016.99 39.4337 1017.3 39.0374 1017.73 38.7509C1018.17 38.4607 1018.71 38.3156 1019.36 38.3156C1019.95 38.3156 1020.47 38.4458 1020.91 38.7063C1021.36 38.963 1021.71 39.3332 1021.95 39.8169C1022.2 40.2969 1022.33 40.8718 1022.32 41.5415V47H1019.94V41.9657C1019.95 41.4373 1019.81 41.0262 1019.54 40.7323C1019.27 40.4383 1018.9 40.2913 1018.41 40.2913C1018.09 40.2913 1017.8 40.3602 1017.56 40.4978C1017.31 40.6355 1017.12 40.8364 1016.97 41.1006C1016.84 41.3611 1016.77 41.6755 1016.76 42.0438ZM1025.96 37.5621V35.5696H1035.35V37.5621H1031.85V47H1029.46V37.5621H1025.96ZM1035.22 47V38.4272H1037.53V39.923H1037.62C1037.77 39.3909 1038.04 38.989 1038.4 38.7174C1038.77 38.4421 1039.2 38.3044 1039.68 38.3044C1039.8 38.3044 1039.92 38.3118 1040.06 38.3267C1040.2 38.3416 1040.32 38.3621 1040.42 38.3881V40.4978C1040.31 40.4644 1040.16 40.4346 1039.96 40.4085C1039.76 40.3825 1039.58 40.3695 1039.42 40.3695C1039.07 40.3695 1038.76 40.4457 1038.48 40.5983C1038.21 40.7471 1037.99 40.9555 1037.83 41.2234C1037.68 41.4913 1037.6 41.8001 1037.6 42.1499V47H1035.22ZM1040.91 47V38.4272H1043.29V47H1040.91ZM1042.11 37.3221C1041.76 37.3221 1041.45 37.2049 1041.2 36.9705C1040.95 36.7324 1040.83 36.4477 1040.83 36.1166C1040.83 35.7891 1040.95 35.5082 1041.2 35.2738C1041.45 35.0356 1041.76 34.9166 1042.11 34.9166C1042.46 34.9166 1042.76 35.0356 1043.01 35.2738C1043.27 35.5082 1043.39 35.7891 1043.39 36.1166C1043.39 36.4477 1043.27 36.7324 1043.01 36.9705C1042.76 37.2049 1042.46 37.3221 1042.11 37.3221ZM1044.46 50.2148V38.4272H1046.8V39.8672H1046.91C1047.01 39.6365 1047.16 39.4021 1047.36 39.1639C1047.56 38.9221 1047.82 38.7211 1048.14 38.5611C1048.47 38.3974 1048.87 38.3156 1049.35 38.3156C1049.97 38.3156 1050.55 38.4793 1051.08 38.8067C1051.61 39.1304 1052.03 39.6197 1052.34 40.2746C1052.66 40.9257 1052.82 41.7425 1052.82 42.7248C1052.82 43.681 1052.66 44.4884 1052.36 45.147C1052.05 45.8019 1051.63 46.2986 1051.11 46.6372C1050.58 46.9721 1049.99 47.1395 1049.34 47.1395C1048.88 47.1395 1048.49 47.0633 1048.16 46.9107C1047.84 46.7581 1047.58 46.5665 1047.38 46.3358C1047.17 46.1014 1047.02 45.8651 1046.91 45.627H1046.84V50.2148H1044.46ZM1046.79 42.7136C1046.79 43.2234 1046.86 43.668 1047 44.0475C1047.14 44.427 1047.34 44.7228 1047.61 44.9349C1047.88 45.1433 1048.2 45.2475 1048.59 45.2475C1048.98 45.2475 1049.3 45.1414 1049.57 44.9294C1049.84 44.7135 1050.04 44.4159 1050.18 44.0364C1050.32 43.6531 1050.39 43.2122 1050.39 42.7136C1050.39 42.2187 1050.32 41.7834 1050.18 41.4076C1050.05 41.0318 1049.84 40.7378 1049.58 40.5257C1049.31 40.3137 1048.98 40.2076 1048.59 40.2076C1048.2 40.2076 1047.87 40.3099 1047.61 40.5146C1047.34 40.7192 1047.14 41.0095 1047 41.3853C1046.86 41.7611 1046.79 42.2038 1046.79 42.7136ZM1056.11 47.1619C1055.56 47.1619 1055.08 47.067 1054.65 46.8772C1054.22 46.6837 1053.88 46.3991 1053.63 46.0233C1053.39 45.6438 1053.26 45.1712 1053.26 44.6056C1053.26 44.1294 1053.35 43.7294 1053.53 43.4057C1053.7 43.082 1053.94 42.8215 1054.24 42.6243C1054.54 42.4271 1054.88 42.2783 1055.27 42.1778C1055.65 42.0773 1056.06 42.0066 1056.48 41.9657C1056.98 41.9136 1057.38 41.8652 1057.69 41.8206C1057.99 41.7722 1058.22 41.7015 1058.35 41.6085C1058.49 41.5155 1058.56 41.3778 1058.56 41.1955V41.162C1058.56 40.8085 1058.45 40.535 1058.23 40.3416C1058.01 40.1481 1057.69 40.0513 1057.29 40.0513C1056.86 40.0513 1056.52 40.1462 1056.27 40.336C1056.01 40.522 1055.85 40.7564 1055.76 41.0392L1053.56 40.8606C1053.68 40.3397 1053.9 39.8895 1054.22 39.51C1054.55 39.1267 1054.97 38.8328 1055.49 38.6281C1056.01 38.4198 1056.61 38.3156 1057.3 38.3156C1057.77 38.3156 1058.23 38.3714 1058.67 38.483C1059.11 38.5946 1059.49 38.7676 1059.83 39.0021C1060.17 39.2365 1060.44 39.5379 1060.64 39.9062C1060.84 40.2709 1060.94 40.7081 1060.94 41.2178V47H1058.68V45.8112H1058.62C1058.48 46.0791 1058.29 46.3154 1058.06 46.52C1057.83 46.7209 1057.56 46.8791 1057.23 46.9944C1056.91 47.106 1056.53 47.1619 1056.11 47.1619ZM1056.79 45.521C1057.14 45.521 1057.45 45.4521 1057.72 45.3145C1057.99 45.1731 1058.2 44.9833 1058.35 44.7452C1058.5 44.507 1058.58 44.2373 1058.58 43.9359V43.0261C1058.5 43.0745 1058.4 43.1192 1058.27 43.1601C1058.14 43.1973 1058 43.2327 1057.84 43.2661C1057.68 43.2959 1057.52 43.3238 1057.36 43.3499C1057.2 43.3722 1057.05 43.3926 1056.92 43.4113C1056.65 43.4522 1056.4 43.5173 1056.19 43.6066C1055.99 43.6959 1055.82 43.8168 1055.71 43.9694C1055.59 44.1182 1055.53 44.3043 1055.53 44.5275C1055.53 44.8512 1055.65 45.0987 1055.89 45.2698C1056.12 45.4372 1056.43 45.521 1056.79 45.521ZM1066.6 38.4272V40.2132H1061.44V38.4272H1066.6ZM1062.61 36.3733H1064.99V44.3656C1064.99 44.5852 1065.02 44.7563 1065.09 44.8791C1065.16 44.9982 1065.25 45.0819 1065.37 45.1303C1065.49 45.1787 1065.63 45.2028 1065.79 45.2028C1065.91 45.2028 1066.02 45.1935 1066.13 45.1749C1066.24 45.1526 1066.33 45.1359 1066.39 45.1247L1066.76 46.894C1066.64 46.9312 1066.47 46.974 1066.26 47.0223C1066.04 47.0744 1065.78 47.106 1065.47 47.1172C1064.9 47.1395 1064.4 47.0633 1063.96 46.8884C1063.54 46.7135 1063.2 46.4419 1062.96 46.0735C1062.73 45.7051 1062.61 45.24 1062.61 44.6782V36.3733ZM1069.98 42.0438V47H1067.6V35.5696H1069.91V39.9397H1070.01C1070.2 39.4337 1070.51 39.0374 1070.95 38.7509C1071.38 38.4607 1071.92 38.3156 1072.57 38.3156C1073.17 38.3156 1073.68 38.4458 1074.13 38.7063C1074.57 38.963 1074.92 39.3332 1075.17 39.8169C1075.42 40.2969 1075.54 40.8718 1075.53 41.5415V47H1073.16V41.9657C1073.16 41.4373 1073.03 41.0262 1072.75 40.7323C1072.49 40.4383 1072.11 40.2913 1071.63 40.2913C1071.3 40.2913 1071.02 40.3602 1070.77 40.4978C1070.52 40.6355 1070.33 40.8364 1070.19 41.1006C1070.05 41.3611 1069.98 41.6755 1069.98 42.0438ZM1076.67 47V38.4272H1079.04V47H1076.67ZM1077.86 37.3221C1077.51 37.3221 1077.2 37.2049 1076.95 36.9705C1076.7 36.7324 1076.58 36.4477 1076.58 36.1166C1076.58 35.7891 1076.7 35.5082 1076.95 35.2738C1077.2 35.0356 1077.51 34.9166 1077.86 34.9166C1078.21 34.9166 1078.52 35.0356 1078.77 35.2738C1079.02 35.5082 1079.14 35.7891 1079.14 36.1166C1079.14 36.4477 1079.02 36.7324 1078.77 36.9705C1078.52 37.2049 1078.21 37.3221 1077.86 37.3221Z" fill="#B1CFFB" fill-opacity="0.64"/>
<g clip-path="url(#clip0_5_419)">
<path d="M998.14 16.9292C997.616 18.2155 997.299 19.0569 996.715 20.305C997.073 20.6847 997.513 21.1268 998.227 21.6261C997.459 21.3102 996.936 20.9931 996.544 20.6641C995.797 22.224 994.625 24.4461 992.248 28.7168C994.116 27.6383 995.565 26.9734 996.915 26.7197C996.857 26.4705 996.824 26.2009 996.826 25.9195L996.828 25.8597C996.858 24.6628 997.48 23.7425 998.218 23.805C998.956 23.8674 999.529 24.8889 999.5 26.0858C999.494 26.311 999.469 26.5276 999.424 26.7286C1000.76 26.9897 1002.19 27.6529 1004.04 28.7168C1003.67 28.0478 1003.35 27.4448 1003.04 26.8704C1002.55 26.4923 1002.04 26.0001 1001 25.4674C1001.72 25.6528 1002.23 25.8666 1002.63 26.1057C999.476 20.2426 999.221 19.4635 998.14 16.9292Z" fill="#B1CFFB" fill-opacity="0.32"/>
</g>
<defs>
<linearGradient id="paint0_linear_5_419" x1="216" y1="0" x2="216" y2="49" gradientUnits="userSpaceOnUse">
<stop stop-color="white" stop-opacity="0"/>
<stop offset="1" stop-color="#B1CFFB"/>
</linearGradient>
<clipPath id="clip0_5_419">
<rect width="11.7876" height="11.7876" fill="white" transform="translate(992.248 16.9292)"/>
</clipPath>
</defs>
</svg>
